<?xml version="1.0" encoding="utf-8"?>
<!-- Generator: Adobe Illustrator 24.1.0, SVG Export Plug-In . SVG Version: 6.00 Build 0)  -->
<svg version="1.1" id="Layer_1" xmlns="http://www.w3.org/2000/svg" xmlns:xlink="http://www.w3.org/1999/xlink" x="0px" y="0px"
	 viewBox="0 0 345.5 66.7" style="enable-background:new 0 0 345.5 66.7;" xml:space="preserve">
<style type="text/css">
	.st0{fill:url(#SVGID_1_);}
	.st1{fill:url(#SVGID_2_);}
	.st2{fill:#515151;}
</style>
<g>
	<g>
		<g>
			<g>
				
					<linearGradient id="SVGID_1_" gradientUnits="userSpaceOnUse" x1="13.0514" y1="48.76" x2="52.6002" y2="48.76" gradientTransform="matrix(1 0 0 -1 0 68)">
					<stop  offset="0" style="stop-color:#3A23AD"/>
					<stop  offset="1" style="stop-color:#4C3CE2"/>
				</linearGradient>
				<path class="st0" d="M21.7,13.8C21.7,13.8,21.7,13.8,21.7,13.8c-0.1,0.1-0.3,0.2-0.5,0.2c-7.9,3.8-10.5,14.8-5.8,24.4L44,24.7
					c0,0,0,0,0,0c0.2-0.1,0.3-0.1,0.5-0.2C52.3,20.6,55,9.7,50.3,0L21.7,13.8z"/>
			</g>
			<g>
				
					<linearGradient id="SVGID_2_" gradientUnits="userSpaceOnUse" x1="8.8014" y1="20.51" x2="48.3458" y2="20.51" gradientTransform="matrix(1 0 0 -1 0 68)">
					<stop  offset="0" style="stop-color:#3A23AD"/>
					<stop  offset="1" style="stop-color:#4C3CE2"/>
				</linearGradient>
				<path class="st1" d="M17.4,42.1C17.4,42.1,17.4,42.1,17.4,42.1c-0.1,0.1-0.3,0.1-0.5,0.2c-7.9,3.8-10.5,14.8-5.8,24.4l28.6-13.8
					c0,0,0,0,0,0c0.2-0.1,0.3-0.1,0.5-0.2c7.9-3.8,10.5-14.8,5.8-24.4L17.4,42.1z"/>
			</g>
		</g>
	</g>
	<g>
		<g>
			<g>
				<g>
					<g>
						<path class="st2" d="M78,38.2c1.7,1.5,5.2,3,7.9,3c2.1,0,3-0.7,3-1.7c0-1.2-1.5-1.6-3.8-1.9c-3.8-0.7-9.2-1.4-9.2-7.1
							c0-3.9,3.4-7.4,9.6-7.4c3.8,0,6.9,1.2,9.3,3L92,30.8c-1.3-1.3-3.9-2.5-6.6-2.5c-1.7,0-2.8,0.6-2.8,1.5c0,1,1.2,1.4,3.6,1.8
							c3.8,0.7,9.4,1.6,9.4,7.5c0,4.2-3.8,7.4-10.2,7.4c-4,0-8.1-1.3-10.4-3.4L78,38.2z"/>
						<path class="st2" d="M108.8,23.1c6.6,0,11.4,4.9,11.4,12.4V37h-15.9c0.4,2.1,2.4,4,5.7,4c2,0,4.2-0.8,5.5-1.9l3,4.4
							c-2.2,2-5.9,3-9.3,3c-6.9,0-12.2-4.5-12.2-11.8C96.9,28.3,101.8,23.1,108.8,23.1z M104.2,32.4h9.2c-0.2-1.6-1.3-3.8-4.6-3.8
							C105.7,28.6,104.5,30.8,104.2,32.4z"/>
						<path class="st2" d="M136,43.7c-1.4,1.7-4.1,2.8-6.9,2.8c-3.4,0-7.7-2.3-7.7-7.3c0-5.4,4.2-7,7.7-7c3,0,5.6,0.9,6.9,2.6v-2.8
							c0-1.9-1.7-3.2-4.5-3.2c-2.2,0-4.5,0.8-6.3,2.4l-2.5-4.5c2.9-2.5,6.7-3.5,10.1-3.5c5.4,0,10.4,2,10.4,8.9v14H136L136,43.7
							L136,43.7z M136,38.2c-0.7-1-2.4-1.6-4-1.6c-1.9,0-3.6,0.8-3.6,2.6s1.7,2.6,3.6,2.6c1.6,0,3.2-0.6,4-1.6V38.2z"/>
						<path class="st2" d="M147.4,23.6h7.1v2.8c1.5-1.8,4.3-3.4,7-3.4V30c-0.4-0.1-1-0.2-1.8-0.2c-1.9,0-4.3,0.8-5.2,2.1V46h-7.1
							L147.4,23.6L147.4,23.6z"/>
						<path class="st2" d="M174.5,23.1c4.8,0,7.8,2.1,9.2,4.1l-4.6,4.3c-0.9-1.3-2.3-2.1-4.2-2.1c-3,0-5.2,2-5.2,5.4
							s2.3,5.5,5.2,5.5c1.9,0,3.3-0.9,4.2-2.2l4.6,4.3c-1.3,1.9-4.4,4.1-9.2,4.1c-7,0-12.2-4.7-12.2-11.8
							C162.3,27.8,167.5,23.1,174.5,23.1z"/>
						<path class="st2" d="M201.1,33c0-2.7-1.4-3.6-3.7-3.6c-2.1,0-3.5,1.2-4.3,2.2V46H186V15l7.1-3.3v14.6c1.3-1.6,4-3.3,7.7-3.3
							c5.1,0,7.4,2.9,7.4,7V46h-7.1V33z"/>
						<path class="st2" d="M213.6,38.2c1.7,1.5,5.2,3,7.9,3c2.1,0,3-0.7,3-1.7c0-1.2-1.5-1.6-3.8-1.9c-3.8-0.7-9.2-1.4-9.2-7.1
							c0-3.9,3.4-7.4,9.6-7.4c3.8,0,6.9,1.2,9.3,3l-2.7,4.7c-1.3-1.3-3.9-2.5-6.6-2.5c-1.7,0-2.8,0.6-2.8,1.5c0,1,1.2,1.4,3.6,1.8
							c3.8,0.7,9.4,1.6,9.4,7.5c0,4.2-3.8,7.4-10.2,7.4c-4,0-8.1-1.3-10.4-3.4L213.6,38.2z"/>
						<path class="st2" d="M234,54.5V23.6h7.1v2.6c1.8-2.1,4.1-3.1,6.6-3.1c5.6,0,9.8,4.2,9.8,11.7c0,7.6-4.2,11.8-9.8,11.8
							c-2.5,0-4.8-1-6.6-3.2v11.1L234,54.5L234,54.5z M245.4,29.4c-1.5,0-3.4,0.8-4.2,2v6.8c0.9,1.2,2.7,2,4.2,2
							c2.8,0,4.9-2.1,4.9-5.5C250.3,31.4,248.1,29.4,245.4,29.4z"/>
						<path class="st2" d="M260.4,23.6h7.1v2.8c1.5-1.8,4.3-3.4,7-3.4V30c-0.4-0.1-1-0.2-1.8-0.2c-1.9,0-4.3,0.8-5.2,2.1V46h-7.1
							L260.4,23.6L260.4,23.6z"/>
						<path class="st2" d="M276.3,16.7c0-2.3,1.8-4.1,4.1-4.1c2.3,0,4.1,1.8,4.1,4.1s-1.8,4.1-4.1,4.1S276.3,19,276.3,16.7z
							 M276.8,23.6h7.1V46h-7.1V23.6z"/>
						<path class="st2" d="M303.3,33.1c0-2.7-1.4-3.7-3.6-3.7c-2.1,0-3.5,1.2-4.4,2.2V46h-7.1V23.6h7.1v2.7c1.3-1.6,4-3.3,7.7-3.3
							c5.1,0,7.4,3,7.4,7.1V46h-7.1V33.1z"/>
						<path class="st2" d="M317.1,46.6c1.7,1.8,4.2,2.6,6.8,2.6c2.4,0,5.7-1,5.7-5.1v-1.7c-1.9,2.2-4.1,3.2-6.6,3.2
							c-5.5,0-9.9-3.8-9.9-11.3c0-7.4,4.2-11.2,9.9-11.2c2.5,0,4.8,1,6.6,3.2v-2.6h7.1V44c0,9.1-7.2,11-12.8,11c-3.8,0-7-1-9.9-3.3
							L317.1,46.6z M329.6,31.3c-0.9-1.2-2.8-2-4.2-2c-2.8,0-4.9,1.7-4.9,4.9c0,3.3,2.1,5,4.9,5c1.5,0,3.4-0.8,4.2-2V31.3z"/>
					</g>
				</g>
			</g>
		</g>
	</g>
</g>
</svg>
