<?xml version="1.0" encoding="UTF-8" standalone="no"?>
<svg
   xmlns:dc="http://purl.org/dc/elements/1.1/"
   xmlns:cc="http://creativecommons.org/ns#"
   xmlns:rdf="http://www.w3.org/1999/02/22-rdf-syntax-ns#"
   xmlns:svg="http://www.w3.org/2000/svg"
   xmlns="http://www.w3.org/2000/svg"
   xmlns:sodipodi="http://sodipodi.sourceforge.net/DTD/sodipodi-0.dtd"
   xmlns:inkscape="http://www.inkscape.org/namespaces/inkscape"
   width="34px"
   height="34px"
   viewBox="0 0 34 34"
   version="1.1"
   id="svg841"
   sodipodi:docname="favicon.svg"
   inkscape:version="1.0.2 (e86c8708, 2021-01-15)">
  <metadata
     id="metadata847">
    <rdf:RDF>
      <cc:Work
         rdf:about="">
        <dc:format>image/svg+xml</dc:format>
        <dc:type
           rdf:resource="http://purl.org/dc/dcmitype/StillImage" />
      </cc:Work>
    </rdf:RDF>
  </metadata>
  <defs
     id="defs845" />
  <sodipodi:namedview
     pagecolor="#ffffff"
     bordercolor="#666666"
     borderopacity="1"
     objecttolerance="10"
     gridtolerance="10"
     guidetolerance="10"
     inkscape:pageopacity="0"
     inkscape:pageshadow="2"
     inkscape:window-width="1355"
     inkscape:window-height="990"
     id="namedview843"
     showgrid="false"
     inkscape:zoom="20.941176"
     inkscape:cx="6.8286517"
     inkscape:cy="16.808989"
     inkscape:window-x="0"
     inkscape:window-y="25"
     inkscape:window-maximized="0"
     inkscape:current-layer="svg841" />
  <title
     id="title833">favicon.svg</title>
  <path
     style="fill:#00cee1;stroke:none;stroke-width:0.238764;stroke-linecap:square;fill-opacity:1;stroke-opacity:1"
     d="M 16.164326,33.948409 C 13.145798,33.81516 10.142136,32.824078 7.592826,31.120178 4.2333417,28.874775 1.7588538,25.485535 0.67305287,21.642351 0.17496908,19.879388 -0.0207451,18.156797 0.05472964,16.20014 0.17838993,12.99429 1.2844191,9.8105668 3.214081,7.1058954 4.2342876,5.6759438 5.7231584,4.1928132 7.1636119,3.1715914 9.8376822,1.2757868 13.003713,0.18356429 16.20014,0.05415483 c 3.943676,-0.15966228 7.527015,0.90034656 10.702349,3.16592597 1.424689,1.016506 2.904886,2.5033426 3.925919,3.9435311 1.894604,2.6723756 2.994366,5.8608491 3.116863,9.0365281 0.09724,2.520832 -0.267668,4.752611 -1.141886,6.983849 -1.928075,4.920967 -6.101183,8.713417 -11.161034,10.142958 -1.172405,0.331236 -2.521823,0.559716 -3.56335,0.603338 -0.317678,0.01331 -0.706529,0.03042 -0.864113,0.03802 -0.157585,0.0076 -0.630337,-0.0013 -1.050562,-0.0199 z m -4.082865,-4.329755 c 1.30007,-0.604021 3.835744,-1.780439 5.634831,-2.614261 3.804541,-1.763292 3.832428,-1.776883 4.282642,-2.087251 0.452931,-0.312242 1.096352,-0.985751 1.428481,-1.495282 1.116945,-1.713546 1.336219,-4.127584 0.57681,-6.350231 -0.195087,-0.57098 -0.4726,-1.176238 -0.52853,-1.152729 -0.02912,0.01224 -1.578644,0.730612 -3.443392,1.596384 -1.864747,0.865772 -4.42191,2.051825 -5.682584,2.635673 -1.260674,0.583848 -2.517767,1.176531 -2.793539,1.317073 -1.503729,0.766344 -2.5295467,2.18815 -2.9434805,4.079723 -0.1386116,0.63342 -0.1254514,2.367879 0.023189,3.05618 0.1309639,0.606449 0.3701406,1.337459 0.607473,1.856659 l 0.1755933,0.384136 0.1493712,-0.06393 c 0.082154,-0.03516 1.213064,-0.558127 2.513135,-1.162147 z M 14.140603,17.96015 c 1.349424,-0.626149 3.923841,-1.819846 5.720926,-2.65266 3.89662,-1.805791 3.89126,-1.80314 4.374346,-2.16268 2.342434,-1.743367 3.003618,-5.1618368 1.631028,-8.4327818 C 25.697961,4.3094321 25.656278,4.2459026 25.573078,4.2642069 25.464704,4.2880497 14.403596,9.414622 13.722706,9.7565851 10.832068,11.208351 9.7843605,15.036556 11.299162,18.611945 c 0.181951,0.42946 0.243831,0.532397 0.307836,0.512082 0.04406,-0.01398 1.184182,-0.537729 2.533605,-1.163877 z"
     id="path849" />
</svg>
