<?xml version="1.0" encoding="UTF-8"?>
<!-- Generated by Pixelmator Pro 3.3.2 -->
<svg width="91" height="91" viewBox="0 0 91 91" xmlns="http://www.w3.org/2000/svg" xmlns:xlink="http://www.w3.org/1999/xlink">
    <g id="logo-snap">
        <g id="Group"/>
        <g id="g2">
            <g id="g3">
                <path id="path7" fill="#515151" stroke="none" d="M -558.980103 -222.825714 C -553.886414 -222.825714 -550.278381 -220.491119 -548.580505 -216.883087 L -551.551819 -215.60965 C -553.037476 -218.580963 -556.008789 -220.06665 -559.192322 -220.06665 C -564.71051 -220.06665 -570.016479 -215.185181 -570.016479 -207.756897 C -570.016479 -202.663177 -566.620667 -199.267395 -561.314697 -199.267395 C -558.980103 -199.267395 -556.433228 -200.328583 -554.523132 -202.238708 L -552.188477 -200.540802 C -554.947632 -197.569489 -558.343384 -196.508301 -561.526978 -196.508301 C -568.318542 -196.508301 -573.200012 -200.965302 -573.200012 -207.756897 C -573.200012 -216.883087 -566.408386 -222.825714 -558.980103 -222.825714 Z"/>
                <path id="path8" fill="#515151" stroke="none" d="M -544.760193 -215.3974 L -541.788879 -215.3974 L -542.425598 -212.638336 C -540.515442 -214.760712 -538.817566 -215.821899 -535.634033 -215.821899 L -536.270691 -212.850555 C -536.482971 -212.850555 -537.11969 -213.062805 -537.756409 -213.062805 C -539.878723 -213.062805 -542.001099 -211.577179 -543.062317 -210.091492 L -546.03363 -197.14502 L -549.004944 -197.14502 L -544.760193 -215.3974 Z"/>
                <path id="path9" fill="#515151" stroke="none" d="M -525.234375 -215.821899 C -520.352905 -215.821899 -517.381592 -212.426086 -517.381592 -207.756897 C -517.381592 -206.907928 -517.593872 -205.634521 -517.593872 -205.210052 L -532.66272 -205.210052 C -532.66272 -204.997803 -532.66272 -204.573334 -532.66272 -204.361084 C -532.66272 -201.389771 -530.540344 -198.842926 -526.295593 -198.842926 C -524.597656 -198.842926 -522.475281 -199.479614 -520.989685 -200.540802 L -519.928467 -198.630676 C -521.626343 -197.357239 -523.960938 -196.508301 -526.295593 -196.508301 C -531.813782 -196.508301 -535.209534 -199.691864 -535.209534 -204.785553 C -535.634033 -210.72821 -530.964783 -215.821899 -525.234375 -215.821899 Z M -519.928467 -207.969116 C -519.928467 -210.94046 -521.838623 -213.487274 -525.446655 -213.487274 C -528.842407 -213.487274 -531.813782 -210.515991 -532.23822 -207.332428 L -519.928467 -207.332428 C -519.928467 -207.332428 -519.928467 -207.756897 -519.928467 -207.969116 Z"/>
                <path id="path10" fill="#515151" stroke="none" d="M -497.431335 -215.3974 L -494.460022 -215.3974 L -498.492523 -196.93277 L -501.251556 -196.93277 L -500.614868 -199.479614 C -502.100555 -197.569489 -504.222931 -196.296051 -506.769745 -196.296051 C -511.014496 -196.296051 -513.985779 -199.055145 -513.985779 -203.936615 C -513.985779 -209.879272 -510.377808 -215.60965 -504.222931 -215.60965 C -501.463806 -215.60965 -499.129181 -214.336212 -497.855835 -212.213837 L -497.431335 -215.3974 Z M -505.920807 -199.055145 C -503.586182 -199.055145 -501.463806 -200.540802 -500.402618 -202.238708 L -498.492523 -210.303741 C -499.341431 -212.001617 -501.463806 -213.275024 -504.010681 -213.275024 C -508.255432 -213.275024 -511.014496 -209.030304 -511.014496 -204.573334 C -511.014496 -201.177521 -509.10437 -199.055145 -505.920807 -199.055145 Z"/>
                <path id="path11" fill="#515151" stroke="none" d="M -491.488708 -200.965302 L -488.729584 -213.062805 L -491.700897 -213.062805 L -491.064209 -215.60965 L -488.092896 -215.60965 L -487.031708 -220.703339 L -484.272583 -220.703339 L -485.333771 -215.60965 L -481.51355 -215.60965 L -482.150208 -213.062805 L -485.75827 -213.062805 L -488.305145 -201.60199 C -488.305145 -201.389771 -488.305145 -201.177521 -488.305145 -200.753052 C -488.305145 -199.691864 -487.668396 -199.055145 -486.394958 -199.055145 C -485.75827 -199.055145 -485.121582 -199.267395 -484.697083 -199.691864 L -484.272583 -197.357239 C -484.909332 -196.720551 -485.97052 -196.508301 -487.031708 -196.508301 C -489.578522 -196.508301 -491.276459 -197.569489 -491.276459 -199.904114 C -491.488708 -199.904114 -491.488708 -200.540802 -491.488708 -200.965302 Z"/>
                <path id="path12" fill="#515151" stroke="none" d="M -470.477173 -215.821899 C -465.595764 -215.821899 -462.624451 -212.426086 -462.624451 -207.756897 C -462.624451 -206.907928 -462.8367 -205.634521 -462.8367 -205.210052 L -477.905487 -205.210052 C -477.905487 -204.997803 -477.905487 -204.573334 -477.905487 -204.361084 C -477.905487 -201.389771 -475.783112 -198.842926 -471.538361 -198.842926 C -469.840485 -198.842926 -467.718109 -199.479614 -466.232422 -200.540802 L -465.171234 -198.630676 C -466.869171 -197.357239 -469.203796 -196.508301 -471.538361 -196.508301 C -477.056549 -196.508301 -480.452362 -199.691864 -480.452362 -204.785553 C -480.876862 -210.72821 -476.419861 -215.821899 -470.477173 -215.821899 Z M -465.171234 -207.969116 C -465.171234 -210.94046 -467.081421 -213.487274 -470.689423 -213.487274 C -474.085236 -213.487274 -477.056549 -210.515991 -477.481049 -207.332428 L -465.171234 -207.332428 C -465.171234 -207.332428 -465.171234 -207.756897 -465.171234 -207.969116 Z"/>
                <path id="path13" fill="#515151" stroke="none" d="M -440.976227 -222.401245 L -438.004913 -222.401245 L -443.735352 -196.93277 L -446.706665 -196.93277 L -446.069916 -199.479614 C -447.555603 -197.569489 -449.677948 -196.296051 -452.224823 -196.296051 C -456.469574 -196.296051 -459.440887 -199.055145 -459.440887 -203.936615 C -459.440887 -209.879272 -455.832825 -215.60965 -449.677948 -215.60965 C -446.706665 -215.60965 -444.58429 -214.336212 -443.310852 -212.213837 L -440.976227 -222.401245 Z M -451.163635 -199.055145 C -448.829041 -199.055145 -446.706665 -200.540802 -445.645477 -202.238708 L -443.735352 -210.303741 C -444.58429 -212.001617 -446.706665 -213.275024 -449.253448 -213.275024 C -453.498199 -213.275024 -456.257324 -209.030304 -456.257324 -204.573334 C -456.257324 -201.177521 -454.347198 -199.055145 -451.163635 -199.055145 Z"/>
                <path id="path14" fill="#515151" stroke="none" d="M -425.482941 -196.93277 L -428.454254 -196.93277 L -422.936066 -222.401245 L -419.964752 -222.401245 L -422.087128 -212.638336 C -420.60144 -214.548462 -418.479065 -215.821899 -415.932281 -215.821899 C -411.687531 -215.821899 -408.716217 -213.062805 -408.716217 -208.181366 C -408.716217 -202.238708 -412.536469 -196.508301 -418.479065 -196.508301 C -421.450439 -196.508301 -423.572815 -197.781738 -424.846191 -199.904114 L -425.482941 -196.93277 Z M -416.781189 -213.275024 C -419.115814 -213.275024 -421.23819 -211.789368 -422.511627 -210.091492 L -424.209503 -202.026489 C -423.360565 -200.328583 -421.23819 -199.055145 -418.691315 -199.055145 C -414.446594 -199.055145 -411.687531 -203.299896 -411.687531 -207.756897 C -411.687531 -211.152679 -413.809906 -213.275024 -416.781189 -213.275024 Z"/>
                <path id="path15" fill="#515151" stroke="none" d="M -406.169342 -192.051331 C -405.108154 -192.051331 -404.471466 -192.47583 -403.410278 -193.961487 L -401.500092 -196.93277 L -405.108154 -215.60965 L -402.136841 -215.60965 L -399.377747 -200.540802 L -389.827057 -215.60965 L -386.643494 -215.60965 L -400.863403 -193.324768 C -402.561279 -190.777924 -404.259216 -189.504486 -406.593842 -189.504486 C -407.44278 -189.504486 -408.291718 -189.716736 -408.928406 -189.928955 L -407.867218 -192.47583 C -407.44278 -192.26358 -406.80603 -192.051331 -406.169342 -192.051331 Z"/>
            </g>
            <g id="svgexport-3">
                <g id="g4">
                    <g id="g8">
                        <path id="path29" fill="#1d4990" stroke="none" d="M 80.914925 33.902737 C 80.914925 38.927994 77.237907 43.00771 72.68541 43.00771 L 54.440453 43.00771 C 48.03194 43.00771 44.109798 35.268486 47.401577 29.175156 L 55.053276 14.974907 C 56.559132 12.225899 59.203075 10.544968 62.092152 10.544968 L 72.650398 10.544968 C 77.185364 10.544968 80.879913 14.64222 80.879913 19.64994 L 80.914925 33.902737 Z"/>
                        <path id="path30" fill="#00aeef" stroke="none" d="M 80.914925 71.460754 C 80.914925 76.485977 77.237907 80.565727 72.68541 80.565727 L 54.440453 80.565727 C 48.03194 80.565727 44.109798 72.826508 47.401577 66.73317 L 55.053276 52.532925 C 56.559132 49.783916 59.203075 48.102985 62.092152 48.102985 L 72.650398 48.102985 C 77.185364 48.102985 80.879913 52.200237 80.879913 57.207958 L 80.914925 71.460754 Z"/>
                        <path id="path31" fill="#00aeef" stroke="none" d="M 10.87666 19.64994 C 10.87666 14.64222 14.553672 10.544968 19.106174 10.544968 L 37.351128 10.544968 C 43.759644 10.544968 47.681782 18.284225 44.389938 24.377525 L 36.738304 38.57777 C 35.232452 41.326778 32.588505 43.00771 29.69943 43.00771 L 19.141184 43.00771 C 14.588681 43.00771 10.91167 38.927994 10.91167 33.902737 L 10.87666 19.64994 Z"/>
                        <path id="path32" fill="#1d4990" stroke="none" d="M 10.87666 57.225464 C 10.87666 52.200237 14.553672 48.120491 19.106174 48.120491 L 37.351128 48.120491 C 43.759644 48.120491 47.681782 55.859711 44.389938 61.953045 L 36.738304 76.153328 C 35.232452 78.902298 32.588505 80.583229 29.69943 80.583229 L 19.141184 80.583229 C 14.588681 80.583229 10.91167 76.485977 10.91167 71.478256 L 10.87666 57.225464 Z"/>
                    </g>
                </g>
            </g>
        </g>
    </g>
    <g id="searchspring-logo">
        <g id="g1">
            <g id="g5">
                <g id="g6">
                    <linearGradient id="linearGradient1" x1="18.0514" y1="312.54" x2="57.6002" y2="312.54" gradientUnits="userSpaceOnUse">
                        <stop offset="1e-05" stop-color="#3a23ad" stop-opacity="1"/>
                        <stop offset="1" stop-color="#4c3ce2" stop-opacity="1"/>
                    </linearGradient>
                    <path id="Path" fill="url(#linearGradient1)" stroke="none" d="M 26.700001 307.099976 C 26.700001 307.099976 26.700001 307.099976 26.700001 307.099976 C 26.6 307.200012 26.4 307.299988 26.200001 307.299988 C 18.299999 311.099976 15.7 322.099976 20.4 331.700012 L 49 318 C 49 318 49 318 49 318 C 49.200001 317.899994 49.299999 317.899994 49.5 317.799988 C 57.299999 313.899994 60 303 55.299999 293.299988 L 26.700001 307.099976 Z"/>
                </g>
                <g id="g7">
                    <linearGradient id="linearGradient2" x1="13.8014" y1="340.79" x2="53.3458" y2="340.79" gradientUnits="userSpaceOnUse">
                        <stop offset="1e-05" stop-color="#3a23ad" stop-opacity="1"/>
                        <stop offset="1" stop-color="#4c3ce2" stop-opacity="1"/>
                    </linearGradient>
                    <path id="path1" fill="url(#linearGradient2)" stroke="none" d="M 22.4 335.399994 C 22.4 335.399994 22.4 335.399994 22.4 335.399994 C 22.299999 335.5 22.1 335.5 21.9 335.599976 C 14 339.399994 11.400001 350.399994 16.1 360 L 44.700001 346.200012 C 44.700001 346.200012 44.700001 346.200012 44.700001 346.200012 C 44.900002 346.100006 45 346.100006 45.200001 346 C 53.099998 342.200012 55.700001 331.200012 51 321.599976 L 22.4 335.399994 Z"/>
                </g>
            </g>
        </g>
        <g id="g9">
            <g id="g10">
                <g id="g11">
                    <g id="g12">
                        <g id="g13">
                            <path id="path2" fill="#515151" stroke="none" d="M 83 331.5 C 84.699997 333 88.199997 334.5 90.900002 334.5 C 93 334.5 93.900002 333.799988 93.900002 332.799988 C 93.900002 331.599976 92.400002 331.200012 90.099998 330.899994 C 86.300003 330.200012 80.900002 329.5 80.900002 323.799988 C 80.900002 319.899994 84.300003 316.399994 90.5 316.399994 C 94.300003 316.399994 97.400002 317.599976 99.800003 319.399994 L 97 324.099976 C 95.699997 322.799988 93.099998 321.599976 90.400002 321.599976 C 88.699997 321.599976 87.599998 322.200012 87.599998 323.099976 C 87.599998 324.099976 88.800003 324.5 91.199997 324.899994 C 95 325.599976 100.599998 326.5 100.599998 332.399994 C 100.599998 336.599976 96.800003 339.799988 90.400002 339.799988 C 86.400002 339.799988 82.300003 338.5 80 336.399994 L 83 331.5 Z"/>
                            <path id="path3" fill="#515151" stroke="none" d="M 113.800003 316.399994 C 120.400002 316.399994 125.199997 321.299988 125.199997 328.799988 L 125.199997 330.299988 L 109.300003 330.299988 C 109.699997 332.399994 111.699997 334.299988 115 334.299988 C 117 334.299988 119.199997 333.5 120.5 332.399994 L 123.5 336.799988 C 121.300003 338.799988 117.599998 339.799988 114.199997 339.799988 C 107.300003 339.799988 102 335.299988 102 328 C 101.900002 321.599976 106.800003 316.399994 113.800003 316.399994 Z M 109.199997 325.700012 L 118.400002 325.700012 C 118.199997 324.099976 117.099998 321.899994 113.800003 321.899994 C 110.699997 321.899994 109.5 324.099976 109.199997 325.700012 Z"/>
                            <path id="path4" fill="#515151" stroke="none" d="M 141 337 C 139.600006 338.700012 136.899994 339.799988 134.100006 339.799988 C 130.699997 339.799988 126.400002 337.5 126.400002 332.5 C 126.400002 327.099976 130.600006 325.5 134.100006 325.5 C 137.100006 325.5 139.699997 326.399994 141 328.099976 L 141 325.299988 C 141 323.399994 139.300003 322.099976 136.5 322.099976 C 134.300003 322.099976 132 322.899994 130.199997 324.5 L 127.699997 320 C 130.600006 317.5 134.399994 316.5 137.800003 316.5 C 143.199997 316.5 148.199997 318.5 148.199997 325.399994 L 148.199997 339.399994 L 141 339.399994 L 141 337 L 141 337 Z M 141 331.5 C 140.300003 330.5 138.600006 329.899994 137 329.899994 C 135.100006 329.899994 133.399994 330.700012 133.399994 332.5 C 133.399994 334.299988 135.100006 335.099976 137 335.099976 C 138.600006 335.099976 140.199997 334.5 141 333.5 L 141 331.5 Z"/>
                            <path id="path5" fill="#515151" stroke="none" d="M 152.399994 316.899994 L 159.5 316.899994 L 159.5 319.700012 C 161 317.899994 163.800003 316.299988 166.5 316.299988 L 166.5 323.299988 C 166.100006 323.200012 165.5 323.099976 164.699997 323.099976 C 162.800003 323.099976 160.399994 323.899994 159.5 325.200012 L 159.5 339.299988 L 152.399994 339.299988 L 152.399994 316.899994 L 152.399994 316.899994 Z"/>
                            <path id="path6" fill="#515151" stroke="none" d="M 179.5 316.399994 C 184.300003 316.399994 187.300003 318.5 188.699997 320.5 L 184.100006 324.799988 C 183.199997 323.5 181.800003 322.700012 179.899994 322.700012 C 176.899994 322.700012 174.699997 324.700012 174.699997 328.099976 C 174.699997 331.5 177 333.599976 179.899994 333.599976 C 181.800003 333.599976 183.199997 332.700012 184.100006 331.399994 L 188.699997 335.700012 C 187.399994 337.599976 184.300003 339.799988 179.5 339.799988 C 172.5 339.799988 167.300003 335.099976 167.300003 328 C 167.300003 321.099976 172.5 316.399994 179.5 316.399994 Z"/>
                            <path id="path16" fill="#515151" stroke="none" d="M 206.100006 326.299988 C 206.100006 323.599976 204.699997 322.700012 202.399994 322.700012 C 200.300003 322.700012 198.899994 323.899994 198.100006 324.899994 L 198.100006 339.299988 L 191 339.299988 L 191 308.299988 L 198.100006 305 L 198.100006 319.599976 C 199.399994 318 202.100006 316.299988 205.800003 316.299988 C 210.899994 316.299988 213.199997 319.200012 213.199997 323.299988 L 213.199997 339.299988 L 206.100006 339.299988 L 206.100006 326.299988 Z"/>
                            <path id="path17" fill="#515151" stroke="none" d="M 218.600006 331.5 C 220.300003 333 223.800003 334.5 226.5 334.5 C 228.600006 334.5 229.5 333.799988 229.5 332.799988 C 229.5 331.599976 228 331.200012 225.699997 330.899994 C 221.899994 330.200012 216.5 329.5 216.5 323.799988 C 216.5 319.899994 219.899994 316.399994 226.100006 316.399994 C 229.899994 316.399994 233 317.599976 235.399994 319.399994 L 232.699997 324.099976 C 231.399994 322.799988 228.800003 321.599976 226.100006 321.599976 C 224.399994 321.599976 223.300003 322.200012 223.300003 323.099976 C 223.300003 324.099976 224.5 324.5 226.899994 324.899994 C 230.699997 325.599976 236.300003 326.5 236.300003 332.399994 C 236.300003 336.599976 232.5 339.799988 226.100006 339.799988 C 222.100006 339.799988 218 338.5 215.699997 336.399994 L 218.600006 331.5 Z"/>
                            <path id="path18" fill="#515151" stroke="none" d="M 239 347.799988 L 239 316.899994 L 246.100006 316.899994 L 246.100006 319.5 C 247.899994 317.399994 250.199997 316.399994 252.699997 316.399994 C 258.299988 316.399994 262.5 320.599976 262.5 328.099976 C 262.5 335.700012 258.299988 339.899994 252.699997 339.899994 C 250.199997 339.899994 247.899994 338.899994 246.100006 336.700012 L 246.100006 347.799988 L 239 347.799988 L 239 347.799988 Z M 250.399994 322.700012 C 248.899994 322.700012 247 323.5 246.199997 324.700012 L 246.199997 331.5 C 247.100006 332.700012 248.899994 333.5 250.399994 333.5 C 253.199997 333.5 255.300003 331.399994 255.300003 328 C 255.300003 324.700012 253.100006 322.700012 250.399994 322.700012 Z"/>
                            <path id="path19" fill="#515151" stroke="none" d="M 265.399994 316.899994 L 272.5 316.899994 L 272.5 319.700012 C 274 317.899994 276.799988 316.299988 279.5 316.299988 L 279.5 323.299988 C 279.100006 323.200012 278.5 323.099976 277.700012 323.099976 C 275.799988 323.099976 273.399994 323.899994 272.5 325.200012 L 272.5 339.299988 L 265.399994 339.299988 L 265.399994 316.899994 L 265.399994 316.899994 Z"/>
                            <path id="path20" fill="#515151" stroke="none" d="M 281.299988 310 C 281.299988 307.700012 283.100006 305.899994 285.399994 305.899994 C 287.700012 305.899994 289.5 307.700012 289.5 310 C 289.5 312.299988 287.700012 314.099976 285.399994 314.099976 C 283.100006 314.099976 281.299988 312.299988 281.299988 310 Z M 281.799988 316.899994 L 288.899994 316.899994 L 288.899994 339.299988 L 281.799988 339.299988 L 281.799988 316.899994 Z"/>
                            <path id="path21" fill="#515151" stroke="none" d="M 308.299988 326.399994 C 308.299988 323.700012 306.899994 322.700012 304.700012 322.700012 C 302.600006 322.700012 301.200012 323.899994 300.299988 324.899994 L 300.299988 339.299988 L 293.200012 339.299988 L 293.200012 316.899994 L 300.299988 316.899994 L 300.299988 319.599976 C 301.600006 318 304.299988 316.299988 308 316.299988 C 313.100006 316.299988 315.399994 319.299988 315.399994 323.399994 L 315.399994 339.299988 L 308.299988 339.299988 L 308.299988 326.399994 Z"/>
                            <path id="path22" fill="#515151" stroke="none" d="M 322.100006 339.899994 C 323.799988 341.700012 326.299988 342.5 328.899994 342.5 C 331.299988 342.5 334.600006 341.5 334.600006 337.399994 L 334.600006 335.700012 C 332.700012 337.899994 330.5 338.899994 328 338.899994 C 322.5 338.899994 318.100006 335.099976 318.100006 327.599976 C 318.100006 320.200012 322.299988 316.399994 328 316.399994 C 330.5 316.399994 332.799988 317.399994 334.600006 319.599976 L 334.600006 317 L 341.700012 317 L 341.700012 337.299988 C 341.700012 346.399994 334.5 348.299988 328.899994 348.299988 C 325.100006 348.299988 321.899994 347.299988 319 345 L 322.100006 339.899994 Z M 334.600006 324.599976 C 333.700012 323.399994 331.799988 322.599976 330.399994 322.599976 C 327.600006 322.599976 325.5 324.299988 325.5 327.5 C 325.5 330.799988 327.600006 332.5 330.399994 332.5 C 331.899994 332.5 333.799988 331.700012 334.600006 330.5 L 334.600006 324.599976 Z"/>
                        </g>
                    </g>
                </g>
            </g>
        </g>
    </g>
</svg>
