<?xml version="1.0" encoding="UTF-8"?>
<!-- Generated by Pixelmator Pro 3.3.2 -->
<svg width="350" height="91" viewBox="0 0 350 91" xmlns="http://www.w3.org/2000/svg" xmlns:xlink="http://www.w3.org/1999/xlink">
    <g id="logo-snap">
        <g id="Group"/>
        <g id="g2">
            <g id="g3">
                <path id="path7" fill="#515151" stroke="none" d="M -559.980103 -222.825714 C -554.886414 -222.825714 -551.278381 -220.491119 -549.580505 -216.883087 L -552.551819 -215.60965 C -554.037476 -218.580963 -557.008789 -220.06665 -560.192322 -220.06665 C -565.71051 -220.06665 -571.016479 -215.185181 -571.016479 -207.756897 C -571.016479 -202.663177 -567.620667 -199.267395 -562.314697 -199.267395 C -559.980103 -199.267395 -557.433228 -200.328583 -555.523132 -202.238708 L -553.188477 -200.540802 C -555.947632 -197.569489 -559.343384 -196.508301 -562.526978 -196.508301 C -569.318542 -196.508301 -574.200012 -200.965302 -574.200012 -207.756897 C -574.200012 -216.883087 -567.408386 -222.825714 -559.980103 -222.825714 Z"/>
                <path id="path8" fill="#515151" stroke="none" d="M -545.760193 -215.3974 L -542.788879 -215.3974 L -543.425598 -212.638336 C -541.515442 -214.760712 -539.817566 -215.821899 -536.634033 -215.821899 L -537.270691 -212.850555 C -537.482971 -212.850555 -538.11969 -213.062805 -538.756409 -213.062805 C -540.878723 -213.062805 -543.001099 -211.577179 -544.062317 -210.091492 L -547.03363 -197.14502 L -550.004944 -197.14502 L -545.760193 -215.3974 Z"/>
                <path id="path9" fill="#515151" stroke="none" d="M -526.234375 -215.821899 C -521.352905 -215.821899 -518.381592 -212.426086 -518.381592 -207.756897 C -518.381592 -206.907928 -518.593872 -205.634521 -518.593872 -205.210052 L -533.66272 -205.210052 C -533.66272 -204.997803 -533.66272 -204.573334 -533.66272 -204.361084 C -533.66272 -201.389771 -531.540344 -198.842926 -527.295593 -198.842926 C -525.597656 -198.842926 -523.475281 -199.479614 -521.989685 -200.540802 L -520.928467 -198.630676 C -522.626343 -197.357239 -524.960938 -196.508301 -527.295593 -196.508301 C -532.813782 -196.508301 -536.209534 -199.691864 -536.209534 -204.785553 C -536.634033 -210.72821 -531.964783 -215.821899 -526.234375 -215.821899 Z M -520.928467 -207.969116 C -520.928467 -210.94046 -522.838623 -213.487274 -526.446655 -213.487274 C -529.842407 -213.487274 -532.813782 -210.515991 -533.23822 -207.332428 L -520.928467 -207.332428 C -520.928467 -207.332428 -520.928467 -207.756897 -520.928467 -207.969116 Z"/>
                <path id="path10" fill="#515151" stroke="none" d="M -498.431335 -215.3974 L -495.460022 -215.3974 L -499.492523 -196.93277 L -502.251556 -196.93277 L -501.614868 -199.479614 C -503.100555 -197.569489 -505.222931 -196.296051 -507.769745 -196.296051 C -512.014465 -196.296051 -514.985779 -199.055145 -514.985779 -203.936615 C -514.985779 -209.879272 -511.377808 -215.60965 -505.222931 -215.60965 C -502.463806 -215.60965 -500.129181 -214.336212 -498.855835 -212.213837 L -498.431335 -215.3974 Z M -506.920807 -199.055145 C -504.586182 -199.055145 -502.463806 -200.540802 -501.402618 -202.238708 L -499.492523 -210.303741 C -500.341431 -212.001617 -502.463806 -213.275024 -505.010681 -213.275024 C -509.255432 -213.275024 -512.014465 -209.030304 -512.014465 -204.573334 C -512.014465 -201.177521 -510.10437 -199.055145 -506.920807 -199.055145 Z"/>
                <path id="path11" fill="#515151" stroke="none" d="M -492.488708 -200.965302 L -489.729584 -213.062805 L -492.700897 -213.062805 L -492.064209 -215.60965 L -489.092896 -215.60965 L -488.031708 -220.703339 L -485.272583 -220.703339 L -486.333771 -215.60965 L -482.51355 -215.60965 L -483.150208 -213.062805 L -486.75827 -213.062805 L -489.305145 -201.60199 C -489.305145 -201.389771 -489.305145 -201.177521 -489.305145 -200.753052 C -489.305145 -199.691864 -488.668396 -199.055145 -487.394958 -199.055145 C -486.75827 -199.055145 -486.121582 -199.267395 -485.697083 -199.691864 L -485.272583 -197.357239 C -485.909332 -196.720551 -486.97052 -196.508301 -488.031708 -196.508301 C -490.578522 -196.508301 -492.276459 -197.569489 -492.276459 -199.904114 C -492.488708 -199.904114 -492.488708 -200.540802 -492.488708 -200.965302 Z"/>
                <path id="path12" fill="#515151" stroke="none" d="M -471.477173 -215.821899 C -466.595764 -215.821899 -463.624451 -212.426086 -463.624451 -207.756897 C -463.624451 -206.907928 -463.8367 -205.634521 -463.8367 -205.210052 L -478.905487 -205.210052 C -478.905487 -204.997803 -478.905487 -204.573334 -478.905487 -204.361084 C -478.905487 -201.389771 -476.783112 -198.842926 -472.538361 -198.842926 C -470.840485 -198.842926 -468.718109 -199.479614 -467.232422 -200.540802 L -466.171234 -198.630676 C -467.869171 -197.357239 -470.203796 -196.508301 -472.538361 -196.508301 C -478.056549 -196.508301 -481.452362 -199.691864 -481.452362 -204.785553 C -481.876862 -210.72821 -477.419861 -215.821899 -471.477173 -215.821899 Z M -466.171234 -207.969116 C -466.171234 -210.94046 -468.081421 -213.487274 -471.689423 -213.487274 C -475.085236 -213.487274 -478.056549 -210.515991 -478.481049 -207.332428 L -466.171234 -207.332428 C -466.171234 -207.332428 -466.171234 -207.756897 -466.171234 -207.969116 Z"/>
                <path id="path13" fill="#515151" stroke="none" d="M -441.976227 -222.401245 L -439.004913 -222.401245 L -444.735352 -196.93277 L -447.706665 -196.93277 L -447.069916 -199.479614 C -448.555603 -197.569489 -450.677948 -196.296051 -453.224823 -196.296051 C -457.469574 -196.296051 -460.440887 -199.055145 -460.440887 -203.936615 C -460.440887 -209.879272 -456.832825 -215.60965 -450.677948 -215.60965 C -447.706665 -215.60965 -445.58429 -214.336212 -444.310852 -212.213837 L -441.976227 -222.401245 Z M -452.163635 -199.055145 C -449.829041 -199.055145 -447.706665 -200.540802 -446.645477 -202.238708 L -444.735352 -210.303741 C -445.58429 -212.001617 -447.706665 -213.275024 -450.253448 -213.275024 C -454.498199 -213.275024 -457.257324 -209.030304 -457.257324 -204.573334 C -457.257324 -201.177521 -455.347198 -199.055145 -452.163635 -199.055145 Z"/>
                <path id="path14" fill="#515151" stroke="none" d="M -426.482941 -196.93277 L -429.454254 -196.93277 L -423.936066 -222.401245 L -420.964752 -222.401245 L -423.087128 -212.638336 C -421.60144 -214.548462 -419.479065 -215.821899 -416.932281 -215.821899 C -412.687531 -215.821899 -409.716217 -213.062805 -409.716217 -208.181366 C -409.716217 -202.238708 -413.536469 -196.508301 -419.479065 -196.508301 C -422.450439 -196.508301 -424.572815 -197.781738 -425.846191 -199.904114 L -426.482941 -196.93277 Z M -417.781189 -213.275024 C -420.115814 -213.275024 -422.23819 -211.789368 -423.511627 -210.091492 L -425.209503 -202.026489 C -424.360565 -200.328583 -422.23819 -199.055145 -419.691315 -199.055145 C -415.446594 -199.055145 -412.687531 -203.299896 -412.687531 -207.756897 C -412.687531 -211.152679 -414.809906 -213.275024 -417.781189 -213.275024 Z"/>
                <path id="path15" fill="#515151" stroke="none" d="M -407.169342 -192.051331 C -406.108154 -192.051331 -405.471466 -192.47583 -404.410278 -193.961487 L -402.500092 -196.93277 L -406.108154 -215.60965 L -403.136841 -215.60965 L -400.377747 -200.540802 L -390.827057 -215.60965 L -387.643494 -215.60965 L -401.863403 -193.324768 C -403.561279 -190.777924 -405.259216 -189.504486 -407.593842 -189.504486 C -408.44278 -189.504486 -409.291718 -189.716736 -409.928406 -189.928955 L -408.867218 -192.47583 C -408.44278 -192.26358 -407.80603 -192.051331 -407.169342 -192.051331 Z"/>
            </g>
            <g id="svgexport-3">
                <g id="g4">
                    <g id="g5">
                        <g id="g6">
                            <path id="path16" fill="#1d4990" stroke="none" d="M 98.930275 25.270523 C 99.945869 23.239395 101.329094 21.681061 103.08007 20.595482 C 104.830994 19.509872 106.774559 18.949562 108.928246 18.949562 C 110.766785 18.949562 112.377663 19.317291 113.778419 20.070183 C 115.161644 20.823074 116.229721 21.803627 116.982643 23.011772 L 116.982643 19.317291 L 124.984505 19.317291 L 124.984505 45.441536 L 116.982643 45.441536 L 116.982643 41.747021 C 116.19471 42.955162 115.109161 43.95322 113.725876 44.68861 C 112.342651 45.441536 110.714233 45.809231 108.875763 45.809231 C 106.757088 45.809231 104.813522 45.24892 103.08007 44.145836 C 101.329094 43.042721 99.945869 41.466846 98.930275 39.418255 C 97.914749 37.369629 97.406952 35.005852 97.406952 32.326866 C 97.406952 29.647911 97.914749 27.284138 98.930275 25.253014 Z M 115.319283 27.669334 C 114.216133 26.513702 112.86792 25.93589 111.292053 25.93589 C 110.136421 25.93589 108.998329 26.286079 108.05275 26.951454 C 106.389389 28.107082 105.566444 29.910545 105.566444 32.361908 C 105.566444 34.357986 106.126724 35.951363 107.229805 37.106995 C 108.595558 38.542763 110.311531 39.103073 112.412674 38.77039 C 112.780365 38.717873 113.148064 38.59531 113.463211 38.437702 C 115.80954 37.317116 116.982643 35.303497 116.982643 32.396915 C 116.982643 30.400806 116.422371 28.824966 115.319283 27.669334 Z"/>
                            <path id="path17" fill="#1d4990" stroke="none" d="M 144.822861 38.665329 L 144.822861 45.459042 L 140.743149 45.459042 C 137.836533 45.459042 135.57782 44.741154 133.949402 43.322891 C 132.321045 41.904594 131.515579 39.593334 131.515579 36.371571 L 131.515579 25.970901 L 128.328827 25.970901 L 128.328827 19.317291 L 131.515579 19.317291 L 131.515579 12.961288 L 139.517502 12.961288 L 139.517502 19.194695 C 139.517502 19.194695 139.569977 19.317291 139.64006 19.317291 L 144.752853 19.317291 L 144.752853 25.970901 L 139.517502 25.970901 L 139.517502 36.459126 C 139.517502 37.247063 139.710083 37.807373 140.077774 38.14006 C 140.44548 38.472744 141.075836 38.647823 141.951263 38.647823 L 144.805328 38.647823 Z"/>
                            <path id="path18" fill="#1d4990" stroke="none" d="M 171.472443 22.03125 C 173.275909 24.009827 174.186401 26.741333 174.186401 30.190716 L 174.186401 45.459042 L 166.219559 45.459042 L 166.219559 31.276295 C 166.219559 29.525345 165.764313 28.177101 164.853806 27.196579 C 163.943314 26.216026 162.735138 25.743271 161.211807 25.743271 C 159.688477 25.743271 158.46283 26.233536 157.569809 27.196579 C 156.659302 28.159595 156.204056 29.525345 156.204056 31.276295 L 156.204056 45.459042 L 148.202194 45.459042 L 148.202194 10.80764 L 156.204056 10.80764 C 156.204056 10.80764 156.204056 10.80764 156.204056 10.80764 L 156.204056 22.819191 C 157.009521 21.663559 158.130142 20.735558 159.530914 20.052681 C 160.931671 19.369804 162.507538 19.019615 164.258453 19.019615 C 167.252625 19.019615 169.651443 20.017639 171.472443 21.996246 Z"/>
                            <path id="path19" fill="#1d4990" stroke="none" d="M 184.044342 44.198349 C 181.995682 43.11277 180.402267 41.5369 179.229172 39.523315 C 178.056 37.492191 177.478195 35.128418 177.478195 32.414421 C 177.478195 29.700424 178.073547 27.371658 179.264175 25.323036 C 180.454819 23.274437 182.065704 21.716072 184.131836 20.612991 C 186.197968 19.509872 188.491745 18.967064 191.065613 18.967064 C 193.639481 18.967064 195.933258 19.509872 197.99939 20.612991 C 200.065521 21.716072 201.676468 23.274437 202.86705 25.323036 C 204.057755 27.371658 204.652969 29.735466 204.652969 32.414421 C 204.652969 35.093376 204.057755 37.457184 202.849579 39.50581 C 201.641403 41.554401 200.012985 43.11277 197.929382 44.215855 C 195.845779 45.31897 193.534515 45.861774 190.978119 45.861774 C 188.421738 45.861774 186.110474 45.31897 184.079285 44.215855 Z M 194.86525 37.212055 C 195.933258 36.091434 196.476074 34.480553 196.476074 32.396915 C 196.476074 30.313282 195.950729 28.7024 194.900192 27.581779 C 193.849655 26.461159 192.571472 25.900879 191.030533 25.900879 C 189.489746 25.900879 188.176605 26.461159 187.143539 27.564274 C 186.110474 28.667358 185.602615 30.295776 185.602615 32.414421 C 185.602615 34.533066 186.110474 36.108936 187.125931 37.229557 C 188.141525 38.350178 189.419724 38.910458 190.943054 38.910458 C 192.46637 38.910458 193.779648 38.350178 194.847656 37.229557 Z"/>
                            <path id="path20" fill="#1d4990" stroke="none" d="M 213.775574 44.653599 C 211.989517 43.865665 210.58876 42.797588 209.555695 41.449345 C 208.522629 40.083626 207.944885 38.57777 207.822311 36.879368 L 215.736618 36.879368 C 215.824112 37.789867 216.261826 38.525257 216.997345 39.085567 C 217.750198 39.645878 218.660706 39.926018 219.763779 39.926018 C 220.76178 39.926018 221.532242 39.733402 222.075043 39.348202 C 222.617859 38.963005 222.898056 38.455208 222.898056 37.824879 C 222.898056 37.071953 222.512756 36.529179 221.724823 36.161484 C 220.93689 35.81126 219.6763 35.408558 217.925308 34.97081 C 216.051758 34.533066 214.493362 34.077816 213.250244 33.587555 C 212.006989 33.097298 210.921509 32.344372 210.028488 31.2938 C 209.117981 30.243229 208.662674 28.842472 208.662674 27.056511 C 208.662674 25.55069 209.082916 24.202446 209.905914 22.959259 C 210.728806 21.733574 211.954575 20.753059 213.565399 20.035172 C 215.176346 19.317291 217.084824 18.967064 219.308594 18.967064 C 222.582901 18.967064 225.17424 19.772507 227.047791 21.400894 C 228.921341 23.029312 230.024414 25.182961 230.304489 27.86195 L 222.915527 27.86195 C 222.792969 26.951454 222.390198 26.233536 221.724823 25.708267 C 221.059448 25.182961 220.16655 24.920326 219.080948 24.920326 C 218.152832 24.920326 217.41745 25.095444 216.927185 25.463135 C 216.436935 25.830833 216.174332 26.321091 216.174332 26.933914 C 216.174332 27.68684 216.577103 28.24715 217.365036 28.614845 C 218.152832 28.98254 219.396088 29.367771 221.094528 29.735466 C 223.020615 30.243229 224.613968 30.73349 225.822144 31.206276 C 227.047791 31.696537 228.115799 32.466934 229.026306 33.552547 C 229.936798 34.638126 230.427063 36.073929 230.462128 37.877392 C 230.462128 39.400749 230.024414 40.766468 229.166473 41.974644 C 228.308517 43.182789 227.082733 44.12833 225.471924 44.811172 C 223.860977 45.494049 222.00502 45.844238 219.868881 45.844238 C 217.59256 45.844238 215.561508 45.459042 213.775574 44.671104 Z"/>
                        </g>
                        <g id="g7">
                            <path id="path21" fill="#00aeef" stroke="none" d="M 99.01783 60.009476 C 100.085907 58.013397 101.574219 56.472569 103.465302 55.369453 C 105.356323 54.266369 107.51001 53.741066 109.94384 53.741066 C 113.130524 53.741066 115.756996 54.529003 117.805588 56.104874 C 119.871719 57.680714 121.202461 59.816895 121.797813 62.530861 L 118.260841 62.530861 C 117.823128 60.67485 116.860077 59.204071 115.406776 58.153469 C 113.935997 57.102898 112.114998 56.577629 109.94384 56.577629 C 108.210388 56.577629 106.651993 56.96283 105.268768 57.750763 C 103.885483 58.5387 102.782394 59.711834 101.97699 61.270168 C 101.171516 62.828537 100.768814 64.754593 100.768814 67.013313 C 100.768814 69.272057 101.171516 71.19812 101.97699 72.773956 C 102.782394 74.349831 103.868011 75.540466 105.268768 76.310898 C 106.651993 77.098831 108.210388 77.501541 109.94384 77.501541 C 112.114998 77.501541 113.935997 76.976273 115.406776 75.908195 C 116.877617 74.85759 117.823128 73.38681 118.260841 71.495758 L 121.797813 71.495758 C 121.202461 74.139709 119.854248 76.275894 117.788116 77.869263 C 115.704453 79.480118 113.095512 80.285583 109.94384 80.285583 C 107.51001 80.285583 105.356323 79.742783 103.465302 78.657166 C 101.574219 77.571587 100.085907 76.030762 99.01783 74.017143 C 97.949753 72.021065 97.406952 69.674759 97.406952 66.995804 C 97.406952 64.316849 97.949753 61.970581 99.01783 59.974468 Z"/>
                            <path id="path22" fill="#00aeef" stroke="none" d="M 131.708221 78.692215 C 129.764664 77.606598 128.241272 76.065765 127.120712 74.052155 C 126.000092 72.056076 125.439751 69.709801 125.439751 67.030815 C 125.439751 64.35186 126.000092 62.005592 127.138191 60.009476 C 128.276352 58.013397 129.817139 56.472569 131.778244 55.369453 C 133.739288 54.283875 135.927979 53.741066 138.34433 53.741066 C 140.76062 53.741066 142.966858 54.283875 144.945435 55.369453 C 146.90654 56.455063 148.464859 57.995895 149.585495 60.009476 C 150.706116 62.005592 151.266388 64.35186 151.266388 67.030815 C 151.266388 69.709801 150.706116 72.003525 149.567947 74.034653 C 148.429855 76.048264 146.87146 77.606598 144.892883 78.692215 C 142.914307 79.777786 140.708145 80.320595 138.274307 80.320595 C 135.840485 80.320595 133.669266 79.777786 131.725693 78.692215 Z M 142.984329 76.275894 C 144.437637 75.505463 145.610794 74.332321 146.503769 72.773956 C 147.39679 71.215622 147.852036 69.307068 147.852036 67.030815 C 147.852036 64.754593 147.414261 62.846039 146.521301 61.287704 C 145.628265 59.72934 144.472702 58.556206 143.019394 57.785774 C 141.566101 57.015373 139.990219 56.630142 138.291794 56.630142 C 136.593353 56.630142 135.017548 57.015373 133.56424 57.785774 C 132.110931 58.556206 130.955307 59.72934 130.079803 61.287704 C 129.221863 62.846039 128.784073 64.772102 128.784073 67.030815 C 128.784073 69.289566 129.221863 71.215622 130.079803 72.773956 C 130.955307 74.332321 132.093399 75.505463 133.529236 76.275894 C 134.964996 77.046288 136.540802 77.431519 138.239243 77.431519 C 139.937683 77.431519 141.51355 77.046288 142.966858 76.275894 Z"/>
                            <path id="path23" fill="#00aeef" stroke="none" d="M 193.026657 56.50758 C 194.935272 58.416134 195.880722 61.182648 195.880722 64.807114 L 195.880722 79.935364 L 192.624008 79.935364 L 192.624008 65.192307 C 192.624008 62.390789 191.941162 60.237103 190.592819 58.766323 C 189.244614 57.278008 187.388672 56.542587 185.059799 56.542587 C 182.731064 56.542587 180.699951 57.348026 179.246704 58.958908 C 177.793396 60.569786 177.075485 62.898552 177.075485 65.962738 L 177.075485 79.952904 L 173.81871 79.952904 L 173.81871 65.209846 C 173.81871 62.408295 173.135803 60.254639 171.787598 58.783829 C 170.439377 57.295513 168.565826 56.560123 166.202026 56.560123 C 163.838211 56.560123 161.842163 57.365532 160.38887 58.976414 C 158.935562 60.587296 158.217712 62.916092 158.217712 65.980247 L 158.217712 79.970406 L 154.908386 79.970406 L 154.908386 54.283875 C 154.908386 54.283875 154.960876 54.161308 155.03096 54.161308 L 158.217712 54.161308 L 158.217712 58.608719 C 159.040649 56.997837 160.196274 55.789692 161.719604 54.949245 C 163.225388 54.108761 164.923828 53.688553 166.779846 53.688553 C 169.021088 53.688553 170.982178 54.231327 172.663086 55.299435 C 174.343979 56.367508 175.569626 57.943348 176.322556 60.027016 C 177.022934 57.97839 178.196106 56.420021 179.894547 55.31694 C 181.592911 54.213821 183.501541 53.688553 185.63768 53.688553 C 188.666855 53.688553 191.135635 54.651569 193.04425 56.542587 Z"/>
                            <path id="path24" fill="#00aeef" stroke="none" d="M 237.623566 56.50758 C 239.532059 58.416134 240.477646 61.182648 240.477646 64.807114 L 240.477646 79.935364 L 237.22081 79.935364 L 237.22081 65.192307 C 237.22081 62.390789 236.537964 60.237103 235.189743 58.766323 C 233.841537 57.278008 231.985458 56.542587 229.656723 56.542587 C 227.327988 56.542587 225.296814 57.348026 223.843506 58.958908 C 222.390198 60.569786 221.672272 62.898552 221.672272 65.962738 L 221.672272 79.952904 L 218.415573 79.952904 L 218.415573 65.209846 C 218.415573 62.408295 217.732727 60.254639 216.384521 58.783829 C 215.036179 57.295513 213.16275 56.560123 210.79895 56.560123 C 208.435135 56.560123 206.439026 57.365532 204.985718 58.976414 C 203.53241 60.587296 202.814499 62.916092 202.814499 65.980247 L 202.814499 79.970406 L 199.505249 79.970406 L 199.505249 54.283875 C 199.505249 54.283875 199.5578 54.161308 199.627808 54.161308 L 202.814499 54.161308 L 202.814499 58.608719 C 203.637512 56.997837 204.793137 55.789692 206.316467 54.949245 C 207.822311 54.108761 209.520752 53.688553 211.376694 53.688553 C 213.617935 53.688553 215.578979 54.231327 217.259949 55.299435 C 218.940903 56.367508 220.16655 57.943348 220.919418 60.027016 C 221.619858 57.97839 222.792969 56.420021 224.491394 55.31694 C 226.189835 54.213821 228.098328 53.688553 230.234482 53.688553 C 233.263657 53.688553 235.732559 54.651569 237.641052 56.542587 Z"/>
                            <path id="path25" fill="#00aeef" stroke="none" d="M 268.738098 68.309044 L 247.323807 68.309044 C 247.411423 70.270111 247.884201 71.93351 248.742157 73.316765 C 249.600113 74.70002 250.703201 75.750587 252.103958 76.468475 C 253.487244 77.168854 255.010574 77.536545 256.638855 77.536545 C 258.775146 77.536545 260.59613 77.011276 262.049438 75.97821 C 263.502625 74.945145 264.483276 73.544388 264.955933 71.775932 L 268.457886 71.775932 C 267.827606 74.297287 266.479248 76.363411 264.413116 77.939285 C 262.346985 79.515152 259.755646 80.320595 256.638855 80.320595 C 254.20517 80.320595 252.033936 79.777786 250.107849 78.692215 C 248.181885 77.606598 246.676025 76.065765 245.590424 74.052155 C 244.504807 72.056076 243.962006 69.709801 243.962006 67.030815 C 243.962006 64.35186 244.504807 62.005592 245.572952 59.991974 C 246.640961 57.97839 248.146805 56.437527 250.055298 55.351948 C 251.963928 54.266369 254.17009 53.741066 256.621399 53.741066 C 259.072815 53.741066 261.22644 54.283875 263.08252 55.351948 C 264.92099 56.420021 266.339233 57.873329 267.337219 59.676826 C 268.335327 61.497795 268.825592 63.493904 268.825592 65.700104 C 268.825592 66.838234 268.790527 67.696182 268.738098 68.291504 Z M 264.325623 60.692352 C 263.520233 59.344139 262.417145 58.311073 261.033844 57.610695 C 259.650574 56.910316 258.127228 56.577629 256.49881 56.577629 C 254.047531 56.577629 251.94632 57.365532 250.212936 58.941402 C 248.479431 60.517273 247.51651 62.740982 247.323807 65.612549 L 265.481262 65.612549 C 265.516205 63.686489 265.131042 62.058105 264.325623 60.692352 Z"/>
                            <path id="path26" fill="#00aeef" stroke="none" d="M 279.103699 54.984253 C 280.592072 54.108761 282.430542 53.653511 284.619232 53.653511 L 284.619232 57.102898 C 284.619232 57.102898 283.726227 57.102898 283.726227 57.102898 C 281.327454 57.102898 279.401367 57.750763 277.965546 59.046463 C 276.512238 60.342163 275.794312 62.49585 275.794312 65.524994 L 275.794312 79.935364 L 272.485077 79.935364 L 272.485077 54.248833 C 272.485077 54.248833 272.537598 54.126266 272.607635 54.126266 L 275.794312 54.126266 L 275.794312 58.713779 C 276.512238 57.102898 277.632904 55.859711 279.121155 54.984253 Z"/>
                            <path id="path27" fill="#00aeef" stroke="none" d="M 289.714569 60.009476 C 290.782562 58.013397 292.270935 56.472569 294.161957 55.369453 C 296.052979 54.266369 298.206604 53.741066 300.640442 53.741066 C 303.82724 53.741066 306.453644 54.529003 308.502319 56.104874 C 310.550842 57.680714 311.8992 59.816895 312.494415 62.530861 L 308.957489 62.530861 C 308.519775 60.67485 307.556732 59.204071 306.103424 58.153469 C 304.63266 57.102898 302.811646 56.577629 300.640442 56.577629 C 298.907043 56.577629 297.348663 56.96283 295.965363 57.750763 C 294.582214 58.5387 293.479004 59.711834 292.673584 61.270168 C 291.868164 62.828537 291.465393 64.754593 291.465393 67.013313 C 291.465393 69.272057 291.868164 71.19812 292.673584 72.773956 C 293.479004 74.349831 294.564606 75.540466 295.965363 76.310898 C 297.348663 77.098831 298.907043 77.501541 300.640442 77.501541 C 302.811646 77.501541 304.63266 76.976273 306.103424 75.908195 C 307.574219 74.85759 308.519775 73.38681 308.957489 71.495758 L 312.494415 71.495758 C 311.8992 74.139709 310.550842 76.275894 308.484711 77.869263 C 306.401123 79.480118 303.792175 80.285583 300.640442 80.285583 C 298.206604 80.285583 296.052979 79.742783 294.161957 78.657166 C 292.270935 77.571587 290.782562 76.030762 289.714569 74.017143 C 288.646423 72.021065 288.103607 69.674759 288.103607 66.995804 C 288.103607 64.316849 288.646423 61.970581 289.714569 59.974468 Z"/>
                            <path id="path28" fill="#00aeef" stroke="none" d="M 340.912506 68.309044 L 319.498199 68.309044 C 319.585846 70.270111 320.058624 71.93351 320.916565 73.316765 C 321.774536 74.70002 322.877625 75.750587 324.278381 76.468475 C 325.661652 77.168854 327.184998 77.536545 328.813263 77.536545 C 330.949554 77.536545 332.75296 77.011276 334.223846 75.97821 C 335.694641 74.945145 336.657684 73.544388 337.130341 71.775932 L 340.632294 71.775932 C 340.002014 74.297287 338.653809 76.363411 336.587677 77.939285 C 334.521545 79.532661 331.930084 80.320595 328.813263 80.320595 C 326.379578 80.320595 324.208344 79.777786 322.282257 78.692215 C 320.356293 77.606598 318.850433 76.065765 317.764832 74.052155 C 316.67923 72.056076 316.136414 69.709801 316.136414 67.030815 C 316.136414 64.35186 316.67923 62.005592 317.747345 59.991974 C 318.815369 57.97839 320.321228 56.437527 322.247314 55.351948 C 324.173279 54.266369 326.361969 53.741066 328.813263 53.741066 C 331.264709 53.741066 333.418304 54.283875 335.256927 55.351948 C 337.095398 56.420021 338.513641 57.873329 339.511749 59.676826 C 340.509735 61.497795 341 63.493904 341 65.700104 C 341 66.838234 340.964935 67.696182 340.912506 68.291504 Z M 336.500031 60.692352 C 335.694641 59.344139 334.591553 58.311073 333.208252 57.610695 C 331.824982 56.910316 330.301666 56.577629 328.673248 56.577629 C 326.221924 56.577629 324.12085 57.365532 322.38736 58.941402 C 320.653839 60.517273 319.690918 62.740982 319.498199 65.612549 L 337.65567 65.612549 C 337.690735 63.686489 337.30545 62.058105 336.500031 60.692352 Z"/>
                        </g>
                    </g>
                    <g id="g8">
                        <path id="path29" fill="#1d4990" stroke="none" d="M 79.914925 33.902737 C 79.914925 38.927994 76.237907 43.00771 71.68541 43.00771 L 53.440453 43.00771 C 47.03194 43.00771 43.109798 35.268486 46.401577 29.175156 L 54.053276 14.974907 C 55.559132 12.225899 58.203075 10.544968 61.092152 10.544968 L 71.650398 10.544968 C 76.185364 10.544968 79.879913 14.64222 79.879913 19.64994 L 79.914925 33.902737 Z"/>
                        <path id="path30" fill="#00aeef" stroke="none" d="M 79.914925 71.460754 C 79.914925 76.485977 76.237907 80.565727 71.68541 80.565727 L 53.440453 80.565727 C 47.03194 80.565727 43.109798 72.826508 46.401577 66.73317 L 54.053276 52.532925 C 55.559132 49.783916 58.203075 48.102985 61.092152 48.102985 L 71.650398 48.102985 C 76.185364 48.102985 79.879913 52.200237 79.879913 57.207958 L 79.914925 71.460754 Z"/>
                        <path id="path31" fill="#00aeef" stroke="none" d="M 9.87666 19.64994 C 9.87666 14.64222 13.553672 10.544968 18.106174 10.544968 L 36.351128 10.544968 C 42.759644 10.544968 46.681782 18.284225 43.389938 24.377525 L 35.738304 38.57777 C 34.232452 41.326778 31.588507 43.00771 28.69943 43.00771 L 18.141184 43.00771 C 13.588681 43.00771 9.91167 38.927994 9.91167 33.902737 L 9.87666 19.64994 Z"/>
                        <path id="path32" fill="#1d4990" stroke="none" d="M 9.87666 57.225464 C 9.87666 52.200237 13.553672 48.120491 18.106174 48.120491 L 36.351128 48.120491 C 42.759644 48.120491 46.681782 55.859711 43.389938 61.953045 L 35.738304 76.153328 C 34.232452 78.902298 31.588507 80.583229 28.69943 80.583229 L 18.141184 80.583229 C 13.588681 80.583229 9.91167 76.485977 9.91167 71.478256 L 9.87666 57.225464 Z"/>
                    </g>
                </g>
            </g>
        </g>
    </g>
    <g id="searchspring-logo">
        <g id="g1">
            <g id="g9">
                <g id="g10">
                    <linearGradient id="linearGradient1" x1="17.0514" y1="312.54" x2="56.6002" y2="312.54" gradientUnits="userSpaceOnUse">
                        <stop offset="1e-05" stop-color="#3a23ad" stop-opacity="1"/>
                        <stop offset="1" stop-color="#4c3ce2" stop-opacity="1"/>
                    </linearGradient>
                    <path id="Path" fill="url(#linearGradient1)" stroke="none" d="M 25.700001 307.099976 C 25.700001 307.099976 25.700001 307.099976 25.700001 307.099976 C 25.6 307.200012 25.4 307.299988 25.200001 307.299988 C 17.299999 311.099976 14.7 322.099976 19.4 331.700012 L 48 318 C 48 318 48 318 48 318 C 48.200001 317.899994 48.299999 317.899994 48.5 317.799988 C 56.299999 313.899994 59 303 54.299999 293.299988 L 25.700001 307.099976 Z"/>
                </g>
                <g id="g11">
                    <linearGradient id="linearGradient2" x1="12.8014" y1="340.79" x2="52.3458" y2="340.79" gradientUnits="userSpaceOnUse">
                        <stop offset="1e-05" stop-color="#3a23ad" stop-opacity="1"/>
                        <stop offset="1" stop-color="#4c3ce2" stop-opacity="1"/>
                    </linearGradient>
                    <path id="path1" fill="url(#linearGradient2)" stroke="none" d="M 21.4 335.399994 C 21.4 335.399994 21.4 335.399994 21.4 335.399994 C 21.299999 335.5 21.1 335.5 20.9 335.599976 C 13 339.399994 10.400001 350.399994 15.1 360 L 43.700001 346.200012 C 43.700001 346.200012 43.700001 346.200012 43.700001 346.200012 C 43.900002 346.100006 44 346.100006 44.200001 346 C 52.099998 342.200012 54.700001 331.200012 50 321.599976 L 21.4 335.399994 Z"/>
                </g>
            </g>
        </g>
        <g id="g12">
            <g id="g13">
                <g id="g14">
                    <g id="g15">
                        <g id="g16">
                            <path id="path2" fill="#515151" stroke="none" d="M 82 331.5 C 83.699997 333 87.199997 334.5 89.900002 334.5 C 92 334.5 92.900002 333.799988 92.900002 332.799988 C 92.900002 331.599976 91.400002 331.200012 89.099998 330.899994 C 85.300003 330.200012 79.900002 329.5 79.900002 323.799988 C 79.900002 319.899994 83.300003 316.399994 89.5 316.399994 C 93.300003 316.399994 96.400002 317.599976 98.800003 319.399994 L 96 324.099976 C 94.699997 322.799988 92.099998 321.599976 89.400002 321.599976 C 87.699997 321.599976 86.599998 322.200012 86.599998 323.099976 C 86.599998 324.099976 87.800003 324.5 90.199997 324.899994 C 94 325.599976 99.599998 326.5 99.599998 332.399994 C 99.599998 336.599976 95.800003 339.799988 89.400002 339.799988 C 85.400002 339.799988 81.300003 338.5 79 336.399994 L 82 331.5 Z"/>
                            <path id="path3" fill="#515151" stroke="none" d="M 112.800003 316.399994 C 119.400002 316.399994 124.199997 321.299988 124.199997 328.799988 L 124.199997 330.299988 L 108.300003 330.299988 C 108.699997 332.399994 110.699997 334.299988 114 334.299988 C 116 334.299988 118.199997 333.5 119.5 332.399994 L 122.5 336.799988 C 120.300003 338.799988 116.599998 339.799988 113.199997 339.799988 C 106.300003 339.799988 101 335.299988 101 328 C 100.900002 321.599976 105.800003 316.399994 112.800003 316.399994 Z M 108.199997 325.700012 L 117.400002 325.700012 C 117.199997 324.099976 116.099998 321.899994 112.800003 321.899994 C 109.699997 321.899994 108.5 324.099976 108.199997 325.700012 Z"/>
                            <path id="path4" fill="#515151" stroke="none" d="M 140 337 C 138.600006 338.700012 135.899994 339.799988 133.100006 339.799988 C 129.699997 339.799988 125.400002 337.5 125.400002 332.5 C 125.400002 327.099976 129.600006 325.5 133.100006 325.5 C 136.100006 325.5 138.699997 326.399994 140 328.099976 L 140 325.299988 C 140 323.399994 138.300003 322.099976 135.5 322.099976 C 133.300003 322.099976 131 322.899994 129.199997 324.5 L 126.699997 320 C 129.600006 317.5 133.399994 316.5 136.800003 316.5 C 142.199997 316.5 147.199997 318.5 147.199997 325.399994 L 147.199997 339.399994 L 140 339.399994 L 140 337 L 140 337 Z M 140 331.5 C 139.300003 330.5 137.600006 329.899994 136 329.899994 C 134.100006 329.899994 132.399994 330.700012 132.399994 332.5 C 132.399994 334.299988 134.100006 335.099976 136 335.099976 C 137.600006 335.099976 139.199997 334.5 140 333.5 L 140 331.5 Z"/>
                            <path id="path5" fill="#515151" stroke="none" d="M 151.399994 316.899994 L 158.5 316.899994 L 158.5 319.700012 C 160 317.899994 162.800003 316.299988 165.5 316.299988 L 165.5 323.299988 C 165.100006 323.200012 164.5 323.099976 163.699997 323.099976 C 161.800003 323.099976 159.399994 323.899994 158.5 325.200012 L 158.5 339.299988 L 151.399994 339.299988 L 151.399994 316.899994 L 151.399994 316.899994 Z"/>
                            <path id="path6" fill="#515151" stroke="none" d="M 178.5 316.399994 C 183.300003 316.399994 186.300003 318.5 187.699997 320.5 L 183.100006 324.799988 C 182.199997 323.5 180.800003 322.700012 178.899994 322.700012 C 175.899994 322.700012 173.699997 324.700012 173.699997 328.099976 C 173.699997 331.5 176 333.599976 178.899994 333.599976 C 180.800003 333.599976 182.199997 332.700012 183.100006 331.399994 L 187.699997 335.700012 C 186.399994 337.599976 183.300003 339.799988 178.5 339.799988 C 171.5 339.799988 166.300003 335.099976 166.300003 328 C 166.300003 321.099976 171.5 316.399994 178.5 316.399994 Z"/>
                            <path id="path33" fill="#515151" stroke="none" d="M 205.100006 326.299988 C 205.100006 323.599976 203.699997 322.700012 201.399994 322.700012 C 199.300003 322.700012 197.899994 323.899994 197.100006 324.899994 L 197.100006 339.299988 L 190 339.299988 L 190 308.299988 L 197.100006 305 L 197.100006 319.599976 C 198.399994 318 201.100006 316.299988 204.800003 316.299988 C 209.899994 316.299988 212.199997 319.200012 212.199997 323.299988 L 212.199997 339.299988 L 205.100006 339.299988 L 205.100006 326.299988 Z"/>
                            <path id="path34" fill="#515151" stroke="none" d="M 217.600006 331.5 C 219.300003 333 222.800003 334.5 225.5 334.5 C 227.600006 334.5 228.5 333.799988 228.5 332.799988 C 228.5 331.599976 227 331.200012 224.699997 330.899994 C 220.899994 330.200012 215.5 329.5 215.5 323.799988 C 215.5 319.899994 218.899994 316.399994 225.100006 316.399994 C 228.899994 316.399994 232 317.599976 234.399994 319.399994 L 231.699997 324.099976 C 230.399994 322.799988 227.800003 321.599976 225.100006 321.599976 C 223.399994 321.599976 222.300003 322.200012 222.300003 323.099976 C 222.300003 324.099976 223.5 324.5 225.899994 324.899994 C 229.699997 325.599976 235.300003 326.5 235.300003 332.399994 C 235.300003 336.599976 231.5 339.799988 225.100006 339.799988 C 221.100006 339.799988 217 338.5 214.699997 336.399994 L 217.600006 331.5 Z"/>
                            <path id="path35" fill="#515151" stroke="none" d="M 238 347.799988 L 238 316.899994 L 245.100006 316.899994 L 245.100006 319.5 C 246.899994 317.399994 249.199997 316.399994 251.699997 316.399994 C 257.299988 316.399994 261.5 320.599976 261.5 328.099976 C 261.5 335.700012 257.299988 339.899994 251.699997 339.899994 C 249.199997 339.899994 246.899994 338.899994 245.100006 336.700012 L 245.100006 347.799988 L 238 347.799988 L 238 347.799988 Z M 249.399994 322.700012 C 247.899994 322.700012 246 323.5 245.199997 324.700012 L 245.199997 331.5 C 246.100006 332.700012 247.899994 333.5 249.399994 333.5 C 252.199997 333.5 254.300003 331.399994 254.300003 328 C 254.300003 324.700012 252.100006 322.700012 249.399994 322.700012 Z"/>
                            <path id="path36" fill="#515151" stroke="none" d="M 264.399994 316.899994 L 271.5 316.899994 L 271.5 319.700012 C 273 317.899994 275.799988 316.299988 278.5 316.299988 L 278.5 323.299988 C 278.100006 323.200012 277.5 323.099976 276.700012 323.099976 C 274.799988 323.099976 272.399994 323.899994 271.5 325.200012 L 271.5 339.299988 L 264.399994 339.299988 L 264.399994 316.899994 L 264.399994 316.899994 Z"/>
                            <path id="path37" fill="#515151" stroke="none" d="M 280.299988 310 C 280.299988 307.700012 282.100006 305.899994 284.399994 305.899994 C 286.700012 305.899994 288.5 307.700012 288.5 310 C 288.5 312.299988 286.700012 314.099976 284.399994 314.099976 C 282.100006 314.099976 280.299988 312.299988 280.299988 310 Z M 280.799988 316.899994 L 287.899994 316.899994 L 287.899994 339.299988 L 280.799988 339.299988 L 280.799988 316.899994 Z"/>
                            <path id="path38" fill="#515151" stroke="none" d="M 307.299988 326.399994 C 307.299988 323.700012 305.899994 322.700012 303.700012 322.700012 C 301.600006 322.700012 300.200012 323.899994 299.299988 324.899994 L 299.299988 339.299988 L 292.200012 339.299988 L 292.200012 316.899994 L 299.299988 316.899994 L 299.299988 319.599976 C 300.600006 318 303.299988 316.299988 307 316.299988 C 312.100006 316.299988 314.399994 319.299988 314.399994 323.399994 L 314.399994 339.299988 L 307.299988 339.299988 L 307.299988 326.399994 Z"/>
                            <path id="path39" fill="#515151" stroke="none" d="M 321.100006 339.899994 C 322.799988 341.700012 325.299988 342.5 327.899994 342.5 C 330.299988 342.5 333.600006 341.5 333.600006 337.399994 L 333.600006 335.700012 C 331.700012 337.899994 329.5 338.899994 327 338.899994 C 321.5 338.899994 317.100006 335.099976 317.100006 327.599976 C 317.100006 320.200012 321.299988 316.399994 327 316.399994 C 329.5 316.399994 331.799988 317.399994 333.600006 319.599976 L 333.600006 317 L 340.700012 317 L 340.700012 337.299988 C 340.700012 346.399994 333.5 348.299988 327.899994 348.299988 C 324.100006 348.299988 320.899994 347.299988 318 345 L 321.100006 339.899994 Z M 333.600006 324.599976 C 332.700012 323.399994 330.799988 322.599976 329.399994 322.599976 C 326.600006 322.599976 324.5 324.299988 324.5 327.5 C 324.5 330.799988 326.600006 332.5 329.399994 332.5 C 330.899994 332.5 332.799988 331.700012 333.600006 330.5 L 333.600006 324.599976 Z"/>
                        </g>
                    </g>
                </g>
            </g>
        </g>
    </g>
</svg>
