<?xml version="1.0" encoding="utf-8"?>
<!-- Generator: Adobe Illustrator 24.1.0, SVG Export Plug-In . SVG Version: 6.00 Build 0)  -->
<svg version="1.1" id="Layer_1" xmlns="http://www.w3.org/2000/svg" xmlns:xlink="http://www.w3.org/1999/xlink" x="0px" y="0px"
	 viewBox="0 0 1400 1400" style="enable-background:new 0 0 1400 1400;" xml:space="preserve">
<style type="text/css">
	.st0{fill:url(#SVGID_1_);}
	.st1{fill:url(#SVGID_2_);}
</style>
<g>
	<g>
		<g>
			<g>
				<g>
					<g>
						<g>
							
								<linearGradient id="SVGID_1_" gradientUnits="userSpaceOnUse" x1="454.006" y1="896.86" x2="1005.2311" y2="896.86" gradientTransform="matrix(1 0 0 -1 0 1400)">
								<stop  offset="0" style="stop-color:#3A23AD"/>
								<stop  offset="1" style="stop-color:#4C3CE2"/>
							</linearGradient>
							<path class="st0" d="M574.2,427.7c0,0.1,0.1,0.1,0.1,0.2c-2.2,1-4.4,1.9-6.6,2.9C457.6,484,421.2,636.5,486.3,771.3
								L885,578.6c0-0.1-0.1-0.1-0.1-0.2c2.2-1,4.4-1.9,6.6-2.9c110.1-53.2,146.5-205.6,81.4-340.5L574.2,427.7z"/>
						</g>
						<g>
							
								<linearGradient id="SVGID_2_" gradientUnits="userSpaceOnUse" x1="394.769" y1="503.14" x2="945.9911" y2="503.14" gradientTransform="matrix(1 0 0 -1 0 1400)">
								<stop  offset="0" style="stop-color:#3A23AD"/>
								<stop  offset="1" style="stop-color:#4C3CE2"/>
							</linearGradient>
							<path class="st1" d="M515,821.4c0,0.1,0.1,0.1,0.1,0.2c-2.2,1-4.4,1.9-6.6,2.9c-110.1,53.2-146.5,205.6-81.4,340.5
								l398.7-192.7c0-0.1-0.1-0.1-0.1-0.2c2.2-1,4.4-1.9,6.6-2.9c110.1-53.2,146.5-205.6,81.4-340.5L515,821.4z"/>
						</g>
					</g>
				</g>
			</g>
		</g>
	</g>
</g>
</svg>
