<?xml version="1.0" encoding="UTF-8" standalone="no"?>
<svg
   xmlns:dc="http://purl.org/dc/elements/1.1/"
   xmlns:cc="http://creativecommons.org/ns#"
   xmlns:rdf="http://www.w3.org/1999/02/22-rdf-syntax-ns#"
   xmlns:svg="http://www.w3.org/2000/svg"
   xmlns="http://www.w3.org/2000/svg"
   xmlns:sodipodi="http://sodipodi.sourceforge.net/DTD/sodipodi-0.dtd"
   xmlns:inkscape="http://www.inkscape.org/namespaces/inkscape"
   version="1.1"
   id="Layer_1"
   x="0px"
   y="0px"
   viewBox="0 0 564 124"
   xml:space="preserve"
   sodipodi:docname="flat-logo-snap.svg"
   inkscape:version="1.0.2 (e86c8708, 2021-01-15)"
   width="564"
   height="124"><metadata
   id="metadata1145"><rdf:RDF><cc:Work
       rdf:about=""><dc:format>image/svg+xml</dc:format><dc:type
         rdf:resource="http://purl.org/dc/dcmitype/StillImage" /><dc:title></dc:title></cc:Work></rdf:RDF></metadata><defs
   id="defs1143" /><sodipodi:namedview
   pagecolor="#ffffff"
   bordercolor="#666666"
   borderopacity="1"
   objecttolerance="10"
   gridtolerance="10"
   guidetolerance="10"
   inkscape:pageopacity="0"
   inkscape:pageshadow="2"
   inkscape:window-width="1792"
   inkscape:window-height="1067"
   id="namedview1141"
   showgrid="false"
   inkscape:zoom="1.8855422"
   inkscape:cx="286.77316"
   inkscape:cy="128.19936"
   inkscape:window-x="1440"
   inkscape:window-y="1800"
   inkscape:window-maximized="1"
   inkscape:current-layer="Layer_1"
   inkscape:document-rotation="0"
   fit-margin-top="0"
   fit-margin-left="0"
   fit-margin-right="0"
   fit-margin-bottom="0" />
<style
   type="text/css"
   id="style1020">
	.st0{fill:url(#SVGID_1_);}
	.st1{fill:#FFFFFF;}
	.st2{fill:#00CEE1;}
	.st3{clip-path:url(#SVGID_3_);}
	.st4{clip-path:url(#SVGID_5_);fill:url(#SVGID_6_);}
	.st5{clip-path:url(#SVGID_8_);fill:url(#SVGID_9_);}
	.st6{clip-path:url(#SVGID_11_);fill:#515151;}
	.st7{fill:#515151;}
</style>
<g
   id="g1035"
   transform="translate(-50,-50.8)">
	
		
	<g
   id="g1033">
		<linearGradient
   id="SVGID_1_"
   gradientUnits="userSpaceOnUse"
   x1="50"
   y1="112.79"
   x2="614"
   y2="112.79">
			<stop
   offset="0"
   style="stop-color:#3A23AD"
   id="stop1024" />
			<stop
   offset="1"
   style="stop-color:#4C3CE2"
   id="stop1026" />
		</linearGradient>
		<path
   class="st0"
   d="m 552,174.8 c -20.3,0 -39.3,-9.9 -50.9,-26.6 -0.9,-1.3 -2.5,-2.1 -4.1,-2.1 -1.6,0 -3.2,0.8 -4.1,2.1 -11.6,16.7 -30.6,26.6 -50.9,26.6 -20.3,0 -39.3,-9.9 -50.9,-26.6 -0.9,-1.3 -2.5,-2.1 -4.1,-2.1 -1.6,0 -3.2,0.8 -4.1,2.1 -11.6,16.7 -30.6,26.6 -50.9,26.6 -20.3,0 -39.3,-9.9 -50.9,-26.6 -0.9,-1.3 -2.5,-2.1 -4.1,-2.1 -1.6,0 -3.2,0.8 -4.1,2.1 -11.6,16.7 -30.6,26.6 -50.9,26.6 -20.3,0 -39.3,-9.9 -50.9,-26.6 -0.9,-1.3 -2.5,-2.1 -4.1,-2.1 -1.6,0 -3.2,0.8 -4.1,2.1 -11.6,16.7 -30.6,26.6 -50.9,26.6 -34.2,0 -62,-27.8 -62,-62 0,-34.2 27.8,-62 62,-62 20.3,0 39.3,9.9 50.9,26.6 0.9,1.3 2.5,2.1 4.1,2.1 1.6,0 3.2,-0.8 4.1,-2.1 11.6,-16.7 30.6,-26.6 50.9,-26.6 20.3,0 39.3,9.9 50.9,26.6 0.9,1.3 2.5,2.1 4.1,2.1 1.6,0 3.2,-0.8 4.1,-2.1 11.6,-16.7 30.6,-26.6 50.9,-26.6 20.3,0 39.3,9.9 50.9,26.6 0.9,1.3 2.5,2.1 4.1,2.1 1.6,0 3.2,-0.8 4.1,-2.1 11.6,-16.7 30.6,-26.6 50.9,-26.6 20.3,0 39.3,9.9 50.9,26.6 0.9,1.3 2.5,2.1 4.1,2.1 1.6,0 3.2,-0.8 4.1,-2.1 11.6,-16.7 30.6,-26.6 50.9,-26.6 34.2,0 62,27.8 62,62 0,34.2 -27.8,62 -62,62 z"
   id="path1029"
   style="fill:url(#SVGID_1_)" />
		
	</g>
</g>
<path
   class="st1"
   d="m 44.8,67.9 c 4.1,3.6 12.7,7.2 19.1,7.2 5.2,0 7.3,-1.7 7.3,-4.1 0,-2.8 -3.7,-3.8 -9.3,-4.7 C 52.7,64.7 39.6,62.8 39.6,49 c 0,-9.6 8.2,-17.9 23.3,-17.9 9.1,0 16.9,2.9 22.7,7.2 L 79,49.8 c -3.3,-3.2 -9.5,-6 -16,-6 -4.1,0 -6.9,1.4 -6.9,3.7 0,2.5 2.9,3.4 8.7,4.4 9.2,1.6 23,3.8 23,18.2 0,10.4 -9.1,18 -24.8,18 -9.7,0 -19.7,-3.3 -25.4,-8.3 z"
   id="path1037" />
<path
   class="st1"
   d="m 183.3,55.4 c 0,-6.6 -3.5,-9 -8.9,-9 -5.2,0 -8.6,2.8 -10.6,5.3 V 86.8 H 146.5 V 32.4 h 17.3 V 39 c 3.3,-3.8 9.7,-8 18.8,-8 12.4,0 18,7.2 18,17.2 v 38.5 h -17.3 z"
   id="path1039" />
<path
   class="st1"
   d="m 291.6,81.4 c -3.4,4.1 -9.9,6.8 -16.9,6.8 -8.3,0 -18.7,-5.6 -18.7,-17.9 0,-13.2 10.4,-17.1 18.7,-17.1 7.2,0 13.6,2.3 16.9,6.3 v -6.9 c 0,-4.7 -4.1,-7.9 -11,-7.9 -5.4,0 -11,2 -15.4,5.7 L 259,39.5 c 7,-6 16.3,-8.4 24.7,-8.4 13.1,0 25.3,4.8 25.3,21.7 v 34 h -17.3 v -5.4 z m 0,-13.4 c -1.8,-2.5 -5.9,-3.8 -9.7,-3.8 -4.6,0 -8.7,2 -8.7,6.3 0,4.3 4.1,6.3 8.7,6.3 3.8,0 7.9,-1.4 9.7,-3.9 z"
   id="path1041" />
<path
   class="st1"
   d="M 366.7,107.5 V 32.4 H 384 v 6.3 c 4.3,-5.2 9.9,-7.7 16.1,-7.7 13.6,0 23.9,10.1 23.9,28.5 0,18.5 -10.2,28.6 -23.9,28.6 -6.1,0 -11.6,-2.4 -16.1,-7.8 v 27.1 h -17.3 z m 27.7,-61.1 c -3.7,0 -8.2,2 -10.4,5 V 68 c 2.1,2.8 6.6,5 10.4,5 6.8,0 11.9,-5.1 11.9,-13.3 0.1,-8.3 -5.1,-13.3 -11.9,-13.3 z"
   id="path1043" />
<path
   class="st2"
   d="m 502.7,82 c 5.7,0 10.6,4.8 10.6,10.6 0,5.6 -4.8,10.5 -10.6,10.5 -5.8,0 -10.5,-4.8 -10.5,-10.5 0,-5.8 4.7,-10.6 10.5,-10.6 z m -10.4,-55.3 22.1,-9.2 -4,58.1 H 495 Z"
   id="path1045" />
<g
   id="g1138"
   transform="translate(-50,-50.8)">
	
	
</g>
</svg>
