<?xml version="1.0" encoding="UTF-8"?>
<!-- Generated by Pixelmator Pro 3.3.2 -->
<svg width="564" height="125" viewBox="0 0 564 125" xmlns="http://www.w3.org/2000/svg" xmlns:xlink="http://www.w3.org/1999/xlink">
    <g id="flat-minimal-logo-snap">
        <g id="g1">
            <g id="g9">
                <g id="g10">
                    <path id="path33" fill="#1d4990" stroke="none" d="M 502 124.600006 C 481.700012 124.600006 462.700012 114.699997 451.100006 98 C 450.200012 96.699997 448.600006 95.900009 447 95.900009 C 445.399994 95.900009 443.799988 96.699997 442.899994 98 C 431.299988 114.699997 412.299988 124.600006 392 124.600006 C 371.700012 124.600006 352.700012 114.699997 341.100006 98 C 340.200012 96.699997 338.600006 95.900009 337 95.900009 C 335.399994 95.900009 333.799988 96.699997 332.899994 98 C 321.299988 114.699997 302.299988 124.600006 282 124.600006 C 261.700012 124.600006 242.700012 114.699997 231.100006 98 C 230.200012 96.699997 228.600006 95.900009 227 95.900009 C 225.399994 95.900009 223.799988 96.699997 222.899994 98 C 211.299988 114.699997 192.300003 124.600006 172 124.600006 C 151.699997 124.600006 132.699997 114.699997 121.100006 98 C 120.199997 96.699997 118.600006 95.900009 117 95.900009 C 115.399994 95.900009 113.800003 96.699997 112.899994 98 C 101.300003 114.699997 82.300003 124.600006 62 124.600006 C 27.800003 124.600006 0 96.800003 0 62.600006 C 0 28.399994 27.800003 0.600006 62 0.600006 C 82.300003 0.600006 101.300003 10.5 112.899994 27.199997 C 113.800003 28.5 115.399994 29.300003 117 29.300003 C 118.600006 29.300003 120.199997 28.5 121.100006 27.199997 C 132.699997 10.5 151.699997 0.600006 172 0.600006 C 192.300003 0.600006 211.299988 10.5 222.899994 27.199997 C 223.799988 28.5 225.399994 29.300003 227 29.300003 C 228.600006 29.300003 230.200012 28.5 231.100006 27.199997 C 242.700012 10.5 261.700012 0.600006 282 0.600006 C 302.299988 0.600006 321.299988 10.5 332.899994 27.199997 C 333.799988 28.5 335.399994 29.300003 337 29.300003 C 338.600006 29.300003 340.200012 28.5 341.100006 27.199997 C 352.700012 10.5 371.700012 0.600006 392 0.600006 C 412.299988 0.600006 431.299988 10.5 442.899994 27.199997 C 443.799988 28.5 445.399994 29.300003 447 29.300003 C 448.600006 29.300003 450.200012 28.5 451.100006 27.199997 C 462.700012 10.5 481.700012 0.600006 502 0.600006 C 536.200012 0.600006 564 28.399994 564 62.600006 C 564 96.800003 536.200012 124.600006 502 124.600006 Z"/>
                </g>
            </g>
            <path id="path34" fill="#ffffff" stroke="none" d="M 44.800003 68.5 C 48.900002 72.100006 57.5 75.700005 63.900002 75.700005 C 69.099998 75.700005 71.199997 74 71.199997 71.600006 C 71.199997 68.800003 67.5 67.800003 61.900002 66.900002 C 52.699997 65.300003 39.599998 63.400002 39.599998 49.600006 C 39.599998 40 47.800003 31.699997 62.900002 31.699997 C 72 31.699997 79.800003 34.600006 85.600006 38.899994 L 79 50.399994 C 75.699997 47.199997 69.5 44.399994 63 44.399994 C 58.900002 44.399994 56.099998 45.800003 56.099998 48.100006 C 56.099998 50.600006 59 51.5 64.800003 52.5 C 74 54.100006 87.800003 56.300003 87.800003 70.700005 C 87.800003 81.100006 78.699997 88.699997 63 88.699997 C 53.300003 88.699997 43.300003 85.400009 37.599998 80.400009 L 44.800003 68.5 Z"/>
            <path id="path35" fill="#ffffff" stroke="none" d="M 183.300003 56 C 183.300003 49.399994 179.800003 47 174.399994 47 C 169.199997 47 165.800003 49.800003 163.800003 52.300003 L 163.800003 87.400009 L 146.5 87.400009 L 146.5 33 L 163.800003 33 L 163.800003 39.600006 C 167.100006 35.800003 173.5 31.600006 182.600006 31.600006 C 195 31.600006 200.600006 38.800003 200.600006 48.800003 L 200.600006 87.300003 L 183.300003 87.300003 L 183.300003 56 Z"/>
            <path id="path36" fill="#ffffff" stroke="none" d="M 291.600006 82 C 288.200012 86.100006 281.700012 88.800003 274.700012 88.800003 C 266.399994 88.800003 256 83.199997 256 70.900002 C 256 57.699997 266.399994 53.800003 274.700012 53.800003 C 281.899994 53.800003 288.299988 56.100006 291.600006 60.100006 L 291.600006 53.199997 C 291.600006 48.5 287.5 45.300003 280.600006 45.300003 C 275.200012 45.300003 269.600006 47.300003 265.200012 51 L 259 40.100006 C 266 34.100006 275.299988 31.699997 283.700012 31.699997 C 296.799988 31.699997 309 36.5 309 53.399994 L 309 87.400009 L 291.700012 87.400009 L 291.700012 82 Z M 291.600006 68.600006 C 289.799988 66.100006 285.700012 64.800003 281.899994 64.800003 C 277.299988 64.800003 273.200012 66.800003 273.200012 71.100006 C 273.200012 75.400002 277.299988 77.400002 281.899994 77.400002 C 285.700012 77.400002 289.799988 76 291.600006 73.5 L 291.600006 68.600006 Z"/>
            <path id="path37" fill="#ffffff" stroke="none" d="M 366.700012 108.100006 L 366.700012 33 L 384 33 L 384 39.300003 C 388.299988 34.100006 393.899994 31.600006 400.100006 31.600006 C 413.700012 31.600006 424 41.699997 424 60.100006 C 424 78.600006 413.799988 88.699997 400.100006 88.699997 C 394 88.699997 388.5 86.300003 384 80.900009 L 384 108 L 366.700012 108 Z M 394.399994 47 C 390.700012 47 386.200012 49 384 52 L 384 68.600006 C 386.100006 71.400002 390.600006 73.600006 394.399994 73.600006 C 401.200012 73.600006 406.299988 68.5 406.299988 60.300003 C 406.399994 52 401.200012 47 394.399994 47 Z"/>
            <path id="path38" fill="#00aeef" stroke="none" d="M 502.700012 82.600006 C 508.400024 82.600006 513.299988 87.400009 513.299988 93.199997 C 513.299988 98.800003 508.5 103.699997 502.700012 103.699997 C 496.900024 103.699997 492.200012 98.900009 492.200012 93.199997 C 492.200012 87.400009 496.900024 82.600006 502.700012 82.600006 Z M 492.299988 27.300003 L 514.400024 18.100006 L 510.400024 76.200005 L 495 76.200005 L 492.299988 27.300003 Z"/>
        </g>
    </g>
</svg>
