<?xml version="1.0" encoding="UTF-8"?>
<!-- Generated by Pixelmator Pro 3.3.2 -->
<svg width="574" height="187" viewBox="0 0 574 187" xmlns="http://www.w3.org/2000/svg" xmlns:xlink="http://www.w3.org/1999/xlink">
    <g id="flat-logo-snap">
        <g id="Group">
            <g id="g1">
                <path id="Path" fill="#1d4990" stroke="none" d="M 507 129.600006 C 486.700012 129.600006 467.700012 119.699997 456.100006 103 C 455.200012 101.699997 453.600006 100.900009 452 100.900009 C 450.399994 100.900009 448.799988 101.699997 447.899994 103 C 436.299988 119.699997 417.299988 129.600006 397 129.600006 C 376.700012 129.600006 357.700012 119.699997 346.100006 103 C 345.200012 101.699997 343.600006 100.900009 342 100.900009 C 340.399994 100.900009 338.799988 101.699997 337.899994 103 C 326.299988 119.699997 307.299988 129.600006 287 129.600006 C 266.700012 129.600006 247.700012 119.699997 236.100006 103 C 235.200012 101.699997 233.600006 100.900009 232 100.900009 C 230.399994 100.900009 228.799988 101.699997 227.899994 103 C 216.299988 119.699997 197.300003 129.600006 177 129.600006 C 156.699997 129.600006 137.699997 119.699997 126.100006 103 C 125.199997 101.699997 123.600006 100.900009 122 100.900009 C 120.399994 100.900009 118.800003 101.699997 117.899994 103 C 106.300003 119.699997 87.300003 129.600006 67 129.600006 C 32.800003 129.600006 5 101.800003 5 67.600006 C 5 33.399994 32.800003 5.600006 67 5.600006 C 87.300003 5.600006 106.300003 15.5 117.899994 32.199997 C 118.800003 33.5 120.399994 34.300003 122 34.300003 C 123.600006 34.300003 125.199997 33.5 126.100006 32.199997 C 137.699997 15.5 156.699997 5.600006 177 5.600006 C 197.300003 5.600006 216.299988 15.5 227.899994 32.199997 C 228.799988 33.5 230.399994 34.300003 232 34.300003 C 233.600006 34.300003 235.200012 33.5 236.100006 32.199997 C 247.700012 15.5 266.700012 5.600006 287 5.600006 C 307.299988 5.600006 326.299988 15.5 337.899994 32.199997 C 338.799988 33.5 340.399994 34.300003 342 34.300003 C 343.600006 34.300003 345.200012 33.5 346.100006 32.199997 C 357.700012 15.5 376.700012 5.600006 397 5.600006 C 417.299988 5.600006 436.299988 15.5 447.899994 32.199997 C 448.799988 33.5 450.399994 34.300003 452 34.300003 C 453.600006 34.300003 455.200012 33.5 456.100006 32.199997 C 467.700012 15.5 486.700012 5.600006 507 5.600006 C 541.200012 5.600006 569 33.399994 569 67.600006 C 569 101.800003 541.200012 129.600006 507 129.600006 Z"/>
                <path id="path1" fill="#ffffff" stroke="none" d="M 507 10.600006 C 538.400024 10.600006 564 36.199997 564 67.600006 C 564 99 538.400024 124.600006 507 124.600006 C 488.400024 124.600006 470.900024 115.5 460.200012 100.100006 C 458.299988 97.400009 455.299988 95.800003 452 95.800003 C 448.700012 95.800003 445.700012 97.400009 443.799988 100.100006 C 433.100006 115.400009 415.600006 124.600006 397 124.600006 C 378.399994 124.600006 360.899994 115.5 350.200012 100.100006 C 348.299988 97.400009 345.299988 95.800003 342 95.800003 C 338.700012 95.800003 335.700012 97.400009 333.799988 100.100006 C 323.100006 115.400009 305.600006 124.600006 287 124.600006 C 268.399994 124.600006 250.899994 115.5 240.200012 100.100006 C 238.299988 97.400009 235.299988 95.800003 232 95.800003 C 228.700012 95.800003 225.700012 97.400009 223.799988 100.100006 C 213.100006 115.400009 195.600006 124.600006 177 124.600006 C 158.399994 124.600006 140.899994 115.5 130.199997 100.100006 C 128.300003 97.400009 125.300003 95.800003 122 95.800003 C 118.699997 95.800003 115.699997 97.400009 113.800003 100.100006 C 103.100006 115.400009 85.600006 124.600006 67 124.600006 C 35.599998 124.600006 10 99 10 67.600006 C 10 36.199997 35.599998 10.600006 67 10.600006 C 85.600006 10.600006 103.100006 19.699997 113.800003 35.100006 C 115.699997 37.800003 118.699997 39.399994 122 39.399994 C 125.300003 39.399994 128.300003 37.800003 130.199997 35.100006 C 140.899994 19.800003 158.399994 10.600006 177 10.600006 C 195.600006 10.600006 213.100006 19.699997 223.799988 35.100006 C 225.700012 37.800003 228.700012 39.399994 232 39.399994 C 235.299988 39.399994 238.299988 37.800003 240.200012 35.100006 C 250.899994 19.800003 268.399994 10.600006 287 10.600006 C 305.600006 10.600006 323.100006 19.699997 333.799988 35.100006 C 335.700012 37.800003 338.700012 39.399994 342 39.399994 C 345.299988 39.399994 348.299988 37.800003 350.200012 35.100006 C 360.899994 19.800003 378.399994 10.600006 397 10.600006 C 415.600006 10.600006 433.100006 19.699997 443.799988 35.100006 C 445.700012 37.800003 448.700012 39.399994 452 39.399994 C 455.299988 39.399994 458.299988 37.800003 460.200012 35.100006 C 470.900024 19.699997 488.400024 10.600006 507 10.600006 M 507 0.600006 C 484.200012 0.600006 464.100006 12 452 29.399994 C 439.899994 12 419.799988 0.600006 397 0.600006 C 374.200012 0.600006 354.100006 12 342 29.399994 C 329.899994 12 309.799988 0.600006 287 0.600006 C 264.200012 0.600006 244.100006 12 232 29.399994 C 219.899994 12 199.800003 0.600006 177 0.600006 C 154.199997 0.600006 134.100006 12 122 29.399994 C 109.899994 12 89.800003 0.600006 67 0.600006 C 30 0.600006 0 30.600006 0 67.600006 C 0 104.600006 30 134.600006 67 134.600006 C 89.800003 134.600006 109.899994 123.199997 122 105.800003 C 134.100006 123.199997 154.199997 134.600006 177 134.600006 C 199.800003 134.600006 219.899994 123.199997 232 105.800003 C 244.100006 123.199997 264.200012 134.600006 287 134.600006 C 309.799988 134.600006 329.899994 123.199997 342 105.800003 C 354.100006 123.199997 374.200012 134.600006 397 134.600006 C 419.799988 134.600006 439.899994 123.199997 452 105.800003 C 464.100006 123.199997 484.200012 134.600006 507 134.600006 C 544 134.600006 574 104.600006 574 67.600006 C 574 30.600006 544 0.600006 507 0.600006 L 507 0.600006 Z"/>
            </g>
        </g>
        <path id="path2" fill="#ffffff" stroke="none" d="M 49.800003 73.5 C 53.900002 77.100006 62.5 80.700005 68.900002 80.700005 C 74.099998 80.700005 76.199997 79 76.199997 76.600006 C 76.199997 73.800003 72.5 72.800003 66.900002 71.900002 C 57.699997 70.300003 44.599998 68.400002 44.599998 54.600006 C 44.599998 45 52.800003 36.699997 67.900002 36.699997 C 77 36.699997 84.800003 39.600006 90.600006 43.899994 L 84 55.399994 C 80.699997 52.199997 74.5 49.399994 68 49.399994 C 63.900002 49.399994 61.099998 50.800003 61.099998 53.100006 C 61.099998 55.600006 64 56.5 69.800003 57.5 C 79 59.100006 92.800003 61.300003 92.800003 75.700005 C 92.800003 86.100006 83.699997 93.699997 68 93.699997 C 58.300003 93.699997 48.300003 90.400009 42.599998 85.400009 L 49.800003 73.5 Z"/>
        <path id="path3" fill="#ffffff" stroke="none" d="M 188.300003 61 C 188.300003 54.399994 184.800003 52 179.399994 52 C 174.199997 52 170.800003 54.800003 168.800003 57.300003 L 168.800003 92.400009 L 151.5 92.400009 L 151.5 38 L 168.800003 38 L 168.800003 44.600006 C 172.100006 40.800003 178.5 36.600006 187.600006 36.600006 C 200 36.600006 205.600006 43.800003 205.600006 53.800003 L 205.600006 92.300003 L 188.300003 92.300003 L 188.300003 61 Z"/>
        <path id="path4" fill="#ffffff" stroke="none" d="M 296.600006 87 C 293.200012 91.100006 286.700012 93.800003 279.700012 93.800003 C 271.399994 93.800003 261 88.199997 261 75.900002 C 261 62.699997 271.399994 58.800003 279.700012 58.800003 C 286.899994 58.800003 293.299988 61.100006 296.600006 65.100006 L 296.600006 58.199997 C 296.600006 53.5 292.5 50.300003 285.600006 50.300003 C 280.200012 50.300003 274.600006 52.300003 270.200012 56 L 264 45.100006 C 271 39.100006 280.299988 36.699997 288.700012 36.699997 C 301.799988 36.699997 314 41.5 314 58.399994 L 314 92.400009 L 296.700012 92.400009 L 296.700012 87 Z M 296.600006 73.600006 C 294.799988 71.100006 290.700012 69.800003 286.899994 69.800003 C 282.299988 69.800003 278.200012 71.800003 278.200012 76.100006 C 278.200012 80.400002 282.299988 82.400002 286.899994 82.400002 C 290.700012 82.400002 294.799988 81 296.600006 78.5 L 296.600006 73.600006 Z"/>
        <path id="path5" fill="#ffffff" stroke="none" d="M 371.700012 113.100006 L 371.700012 38 L 389 38 L 389 44.300003 C 393.299988 39.100006 398.899994 36.600006 405.100006 36.600006 C 418.700012 36.600006 429 46.699997 429 65.100006 C 429 83.600006 418.799988 93.699997 405.100006 93.699997 C 399 93.699997 393.5 91.300003 389 85.900009 L 389 113 L 371.700012 113 Z M 399.399994 52 C 395.700012 52 391.200012 54 389 57 L 389 73.600006 C 391.100006 76.400002 395.600006 78.600006 399.399994 78.600006 C 406.200012 78.600006 411.299988 73.5 411.299988 65.300003 C 411.399994 57 406.200012 52 399.399994 52 Z"/>
        <path id="path6" fill="#00aeef" stroke="none" d="M 507.700012 87.600006 C 513.400024 87.600006 518.299988 92.400009 518.299988 98.199997 C 518.299988 103.800003 513.5 108.699997 507.700012 108.699997 C 501.900024 108.699997 497.200012 103.900009 497.200012 98.199997 C 497.200012 92.400009 501.900024 87.600006 507.700012 87.600006 Z M 497.299988 32.300003 L 519.400024 23.100006 L 515.400024 81.200005 L 500 81.200005 L 497.299988 32.300003 Z"/>
        <g id="g2">
            <g id="g3">
                <path id="path7" fill="#515151" stroke="none" d="M 308.5 160.400009 C 310.899994 160.400009 312.600006 161.5 313.399994 163.199997 L 312 163.800003 C 311.299988 162.400009 309.899994 161.699997 308.399994 161.699997 C 305.799988 161.699997 303.299988 164 303.299988 167.5 C 303.299988 169.900009 304.899994 171.5 307.399994 171.5 C 308.5 171.5 309.700012 171 310.600006 170.100006 L 311.700012 170.900009 C 310.399994 172.300003 308.799988 172.800003 307.299988 172.800003 C 304.100006 172.800003 301.799988 170.699997 301.799988 167.5 C 301.799988 163.199997 305 160.400009 308.5 160.400009 Z"/>
                <path id="path8" fill="#515151" stroke="none" d="M 315.200012 163.900009 L 316.600006 163.900009 L 316.299988 165.199997 C 317.200012 164.199997 318 163.699997 319.5 163.699997 L 319.200012 165.100006 C 319.100006 165.100006 318.799988 165 318.5 165 C 317.5 165 316.5 165.699997 316 166.400009 L 314.600006 172.5 L 313.200012 172.5 L 315.200012 163.900009 Z"/>
                <path id="path9" fill="#515151" stroke="none" d="M 324.399994 163.699997 C 326.700012 163.699997 328.100006 165.300003 328.100006 167.5 C 328.100006 167.900009 328 168.5 328 168.699997 L 320.899994 168.699997 C 320.899994 168.800003 320.899994 169 320.899994 169.100006 C 320.899994 170.5 321.899994 171.699997 323.899994 171.699997 C 324.700012 171.699997 325.700012 171.400009 326.399994 170.900009 L 326.899994 171.800003 C 326.100006 172.400009 325 172.800003 323.899994 172.800003 C 321.299988 172.800003 319.700012 171.300003 319.700012 168.900009 C 319.5 166.100006 321.700012 163.699997 324.399994 163.699997 Z M 326.899994 167.400009 C 326.899994 166 326 164.800003 324.299988 164.800003 C 322.700012 164.800003 321.299988 166.199997 321.100006 167.699997 L 326.899994 167.699997 C 326.899994 167.699997 326.899994 167.5 326.899994 167.400009 Z"/>
                <path id="path10" fill="#515151" stroke="none" d="M 337.5 163.900009 L 338.899994 163.900009 L 337 172.600006 L 335.700012 172.600006 L 336 171.400009 C 335.299988 172.300003 334.299988 172.900009 333.100006 172.900009 C 331.100006 172.900009 329.700012 171.600006 329.700012 169.300003 C 329.700012 166.5 331.399994 163.800003 334.299988 163.800003 C 335.600006 163.800003 336.700012 164.400009 337.299988 165.400009 L 337.5 163.900009 Z M 333.5 171.600006 C 334.600006 171.600006 335.600006 170.900009 336.100006 170.100006 L 337 166.300003 C 336.600006 165.5 335.600006 164.900009 334.399994 164.900009 C 332.399994 164.900009 331.100006 166.900009 331.100006 169 C 331.100006 170.600006 332 171.600006 333.5 171.600006 Z"/>
                <path id="path11" fill="#515151" stroke="none" d="M 340.299988 170.699997 L 341.600006 165 L 340.200012 165 L 340.5 163.800003 L 341.899994 163.800003 L 342.399994 161.400009 L 343.700012 161.400009 L 343.200012 163.800003 L 345 163.800003 L 344.700012 165 L 343 165 L 341.799988 170.400009 C 341.799988 170.5 341.799988 170.600006 341.799988 170.800003 C 341.799988 171.300003 342.100006 171.600006 342.700012 171.600006 C 343 171.600006 343.299988 171.5 343.5 171.300003 L 343.700012 172.400009 C 343.399994 172.699997 342.899994 172.800003 342.399994 172.800003 C 341.200012 172.800003 340.399994 172.300003 340.399994 171.199997 C 340.299988 171.199997 340.299988 170.900009 340.299988 170.699997 Z"/>
                <path id="path12" fill="#515151" stroke="none" d="M 350.200012 163.699997 C 352.5 163.699997 353.899994 165.300003 353.899994 167.5 C 353.899994 167.900009 353.799988 168.5 353.799988 168.699997 L 346.700012 168.699997 C 346.700012 168.800003 346.700012 169 346.700012 169.100006 C 346.700012 170.5 347.700012 171.699997 349.700012 171.699997 C 350.5 171.699997 351.5 171.400009 352.200012 170.900009 L 352.700012 171.800003 C 351.899994 172.400009 350.799988 172.800003 349.700012 172.800003 C 347.100006 172.800003 345.5 171.300003 345.5 168.900009 C 345.299988 166.100006 347.399994 163.699997 350.200012 163.699997 Z M 352.700012 167.400009 C 352.700012 166 351.799988 164.800003 350.100006 164.800003 C 348.5 164.800003 347.100006 166.199997 346.899994 167.699997 L 352.700012 167.699997 C 352.700012 167.699997 352.700012 167.5 352.700012 167.400009 Z"/>
                <path id="path13" fill="#515151" stroke="none" d="M 364.100006 160.600006 L 365.5 160.600006 L 362.799988 172.600006 L 361.399994 172.600006 L 361.700012 171.400009 C 361 172.300003 360 172.900009 358.799988 172.900009 C 356.799988 172.900009 355.399994 171.600006 355.399994 169.300003 C 355.399994 166.5 357.100006 163.800003 360 163.800003 C 361.399994 163.800003 362.399994 164.400009 363 165.400009 L 364.100006 160.600006 Z M 359.299988 171.600006 C 360.399994 171.600006 361.399994 170.900009 361.899994 170.100006 L 362.799988 166.300003 C 362.399994 165.5 361.399994 164.900009 360.200012 164.900009 C 358.200012 164.900009 356.899994 166.900009 356.899994 169 C 356.899994 170.600006 357.799988 171.600006 359.299988 171.600006 Z"/>
                <path id="path14" fill="#515151" stroke="none" d="M 371.399994 172.600006 L 370 172.600006 L 372.600006 160.600006 L 374 160.600006 L 373 165.199997 C 373.700012 164.300003 374.700012 163.699997 375.899994 163.699997 C 377.899994 163.699997 379.299988 165 379.299988 167.300003 C 379.299988 170.100006 377.5 172.800003 374.700012 172.800003 C 373.299988 172.800003 372.299988 172.199997 371.700012 171.199997 L 371.399994 172.600006 Z M 375.5 164.900009 C 374.399994 164.900009 373.399994 165.600006 372.799988 166.400009 L 372 170.199997 C 372.399994 171 373.399994 171.600006 374.600006 171.600006 C 376.600006 171.600006 377.899994 169.600006 377.899994 167.5 C 377.899994 165.900009 376.899994 164.900009 375.5 164.900009 Z"/>
                <path id="path15" fill="#515151" stroke="none" d="M 380.5 174.900009 C 381 174.900009 381.299988 174.699997 381.799988 174 L 382.700012 172.600006 L 381 163.800003 L 382.399994 163.800003 L 383.700012 170.900009 L 388.200012 163.800003 L 389.700012 163.800003 L 383 174.300003 C 382.200012 175.5 381.399994 176.100006 380.299988 176.100006 C 379.899994 176.100006 379.5 176 379.200012 175.900009 L 379.700012 174.699997 C 379.899994 174.800003 380.200012 174.900009 380.5 174.900009 Z"/>
            </g>
            <g id="svgexport-3">
                <g id="g4">
                    <g id="g5">
                        <g id="g6">
                            <path id="path16" fill="#1d4990" stroke="none" d="M 439.68631 160.250595 C 440.161713 159.29982 440.809204 158.570358 441.628845 158.062195 C 442.448456 157.554016 443.358246 157.291733 444.366394 157.291733 C 445.22702 157.291733 445.981079 157.463867 446.63678 157.816299 C 447.284271 158.168732 447.784241 158.627731 448.136688 159.193268 L 448.136688 157.463867 L 451.882385 157.463867 L 451.882385 169.692719 L 448.136688 169.692719 L 448.136688 167.963303 C 447.767853 168.528839 447.259705 168.996033 446.612183 169.340271 C 445.964691 169.692719 445.202423 169.864838 444.341827 169.864838 C 443.350067 169.864838 442.440277 169.602554 441.628845 169.086197 C 440.809204 168.569824 440.161713 167.832153 439.68631 166.873199 C 439.210938 165.91423 438.973236 164.807739 438.973236 163.553696 C 438.973236 162.299667 439.210938 161.193176 439.68631 160.242401 Z M 447.358063 161.373489 C 446.841675 160.832535 446.210571 160.562057 445.4729 160.562057 C 444.931946 160.562057 444.3992 160.725983 443.956573 161.037445 C 443.177948 161.5784 442.792725 162.422607 442.792725 163.570099 C 442.792725 164.504471 443.054993 165.250336 443.57135 165.79129 C 444.210663 166.463379 445.013916 166.725662 445.997467 166.569931 C 446.169586 166.545349 446.341705 166.487976 446.489227 166.4142 C 447.587555 165.889648 448.136688 164.947067 448.136688 163.586487 C 448.136688 162.6521 447.87442 161.914444 447.358063 161.373489 Z"/>
                            <path id="path17" fill="#1d4990" stroke="none" d="M 461.168793 166.520752 L 461.168793 169.700912 L 459.259064 169.700912 C 457.898468 169.700912 456.841156 169.364868 456.078888 168.700974 C 455.31665 168.037064 454.939606 166.955154 454.939606 165.447037 L 454.939606 160.578445 L 453.447876 160.578445 L 453.447876 157.463867 L 454.939606 157.463867 L 454.939606 154.488602 L 458.685333 154.488602 L 458.685333 157.406479 C 458.685333 157.406479 458.7099 157.463867 458.742706 157.463867 L 461.136017 157.463867 L 461.136017 160.578445 L 458.685333 160.578445 L 458.685333 165.488022 C 458.685333 165.856857 458.775482 166.119141 458.947601 166.274872 C 459.11972 166.430603 459.414795 166.512558 459.824585 166.512558 L 461.160583 166.512558 Z"/>
                            <path id="path18" fill="#1d4990" stroke="none" d="M 473.643555 158.734283 C 474.487762 159.660461 474.913971 160.939087 474.913971 162.553757 L 474.913971 169.700912 L 471.184662 169.700912 L 471.184662 163.06192 C 471.184662 162.242294 470.971558 161.611176 470.545349 161.152191 C 470.119141 160.693192 469.553589 160.471893 468.840515 160.471893 C 468.127441 160.471893 467.553711 160.701385 467.135681 161.152191 C 466.709473 161.602982 466.496368 162.242294 466.496368 163.06192 L 466.496368 169.700912 L 462.750671 169.700912 L 462.750671 153.480469 L 466.496368 153.480469 C 466.496368 153.480469 466.496368 153.480469 466.496368 153.480469 L 466.496368 159.103119 C 466.873413 158.562164 467.39798 158.127762 468.05368 157.808105 C 468.709381 157.488449 469.447052 157.324524 470.266663 157.324524 C 471.668243 157.324524 472.791138 157.791702 473.643555 158.717896 Z"/>
                            <path id="path19" fill="#1d4990" stroke="none" d="M 479.528503 169.110779 C 478.569519 168.602615 477.823639 167.864944 477.274506 166.922379 C 476.725342 165.971603 476.454865 164.865112 476.454865 163.594681 C 476.454865 162.324249 476.733551 161.234146 477.290894 160.275177 C 477.848236 159.316223 478.602295 158.586746 479.569458 158.070389 C 480.536621 157.554016 481.610352 157.299927 482.815186 157.299927 C 484.02002 157.299927 485.09375 157.554016 486.060913 158.070389 C 487.028076 158.586746 487.782166 159.316223 488.339478 160.275177 C 488.896851 161.234146 489.175476 162.340652 489.175476 163.594681 C 489.175476 164.848709 488.896851 165.955215 488.331299 166.914185 C 487.765747 167.873138 487.003479 168.602615 486.028137 169.118973 C 485.052795 169.635345 483.970886 169.889435 482.774231 169.889435 C 481.577576 169.889435 480.495667 169.635345 479.544861 169.118973 Z M 484.593811 165.840469 C 485.09375 165.315903 485.347839 164.561844 485.347839 163.586487 C 485.347839 162.61113 485.101929 161.857071 484.610168 161.332504 C 484.118408 160.807938 483.520081 160.54567 482.798767 160.54567 C 482.077515 160.54567 481.46283 160.807938 480.979248 161.32431 C 480.495667 161.840668 480.257935 162.602936 480.257935 163.594681 C 480.257935 164.586426 480.495667 165.324097 480.971008 165.848663 C 481.446411 166.37323 482.044739 166.635498 482.757813 166.635498 C 483.470886 166.635498 484.085632 166.37323 484.585571 165.848663 Z"/>
                            <path id="path20" fill="#1d4990" stroke="none" d="M 493.445801 169.323883 C 492.609741 168.955048 491.954041 168.455078 491.470459 167.823959 C 490.986877 167.184662 490.716431 166.479767 490.659058 165.684738 L 494.36377 165.684738 C 494.404724 166.110947 494.609619 166.455185 494.953918 166.717468 C 495.306335 166.979752 495.732544 167.110886 496.248901 167.110886 C 496.716064 167.110886 497.076721 167.020721 497.330811 166.840408 C 497.5849 166.660095 497.716064 166.422394 497.716064 166.127335 C 497.716064 165.774887 497.535706 165.520813 497.16687 165.348694 C 496.798035 165.184753 496.207947 164.996246 495.388306 164.791336 C 494.511292 164.586426 493.781799 164.373322 493.19989 164.143829 C 492.61792 163.914337 492.109802 163.56189 491.691772 163.070114 C 491.265564 162.578339 491.052429 161.922638 491.052429 161.086624 C 491.052429 160.381744 491.249146 159.750626 491.634399 159.168686 C 492.019592 158.59494 492.593384 158.135956 493.347412 157.799911 C 494.101501 157.463867 494.994873 157.299927 496.035828 157.299927 C 497.568542 157.299927 498.781555 157.676956 499.658569 158.439209 C 500.535583 159.201477 501.051941 160.20961 501.183044 161.463654 L 497.724243 161.463654 C 497.66687 161.037445 497.478333 160.701385 497.16687 160.455505 C 496.855408 160.20961 496.437439 160.08667 495.92926 160.08667 C 495.494812 160.08667 495.150574 160.16864 494.921082 160.340759 C 494.691589 160.512878 494.568665 160.742371 494.568665 161.029236 C 494.568665 161.381683 494.757202 161.643967 495.126038 161.816086 C 495.494812 161.988205 496.076782 162.168533 496.871826 162.340652 C 497.773438 162.578339 498.519287 162.807831 499.084839 163.029144 C 499.658569 163.258636 500.158508 163.619263 500.584717 164.127441 C 501.010925 164.635605 501.240417 165.307709 501.256836 166.151917 C 501.256836 166.865005 501.051941 167.504303 500.65033 168.069855 C 500.248718 168.635391 499.674927 169.078003 498.920898 169.397644 C 498.166809 169.7173 497.298035 169.881226 496.298096 169.881226 C 495.232544 169.881226 494.281799 169.700912 493.445801 169.332077 Z"/>
                        </g>
                        <g id="g7">
                            <path id="path21" fill="#00aeef" stroke="none" d="M 439.727295 176.512024 C 440.227264 175.577652 440.92395 174.856384 441.809174 174.340012 C 442.694366 173.823654 443.702515 173.577759 444.841797 173.577759 C 446.333496 173.577759 447.562958 173.946594 448.521912 174.684265 C 449.489075 175.421921 450.112 176.421875 450.390686 177.692291 L 448.735016 177.692291 C 448.530121 176.823486 448.079315 176.13501 447.399017 175.643219 C 446.710541 175.151443 445.858124 174.905563 444.841797 174.905563 C 444.030365 174.905563 443.300873 175.085876 442.653381 175.454712 C 442.005859 175.823547 441.489502 176.372696 441.112488 177.102158 C 440.735443 177.831635 440.546936 178.733231 440.546936 179.790543 C 440.546936 180.84787 440.735443 181.749466 441.112488 182.487122 C 441.489502 183.224792 441.997681 183.782135 442.653381 184.142776 C 443.300873 184.511612 444.030365 184.700119 444.841797 184.700119 C 445.858124 184.700119 446.710541 184.454239 447.399017 183.954269 C 448.087524 183.462479 448.530121 182.774002 448.735016 181.888794 L 450.390686 181.888794 C 450.112 183.126434 449.480896 184.126389 448.513733 184.872253 C 447.538361 185.626297 446.317108 186.003342 444.841797 186.003342 C 443.702515 186.003342 442.694366 185.749252 441.809174 185.241074 C 440.92395 184.73291 440.227264 184.011642 439.727295 183.069061 C 439.227325 182.134689 438.973236 181.036377 438.973236 179.782349 C 438.973236 178.52832 439.227325 177.430023 439.727295 176.495636 Z"/>
                            <path id="path22" fill="#00aeef" stroke="none" d="M 455.029785 185.257477 C 454.119995 184.749298 453.406891 184.02803 452.882355 183.085449 C 452.357788 182.151077 452.09549 181.05278 452.09549 179.798737 C 452.09549 178.544708 452.357788 177.446411 452.890533 176.512024 C 453.423309 175.577652 454.144562 174.856384 455.062561 174.340012 C 455.98053 173.831848 457.005066 173.577759 458.136169 173.577759 C 459.267242 173.577759 460.299988 173.831848 461.226166 174.340012 C 462.144165 174.84819 462.873627 175.569458 463.398193 176.512024 C 463.92276 177.446411 464.185028 178.544708 464.185028 179.798737 C 464.185028 181.05278 463.92276 182.12648 463.389984 183.077255 C 462.857239 184.019836 462.127747 184.749298 461.201569 185.257477 C 460.275391 185.76564 459.242676 186.01973 458.103394 186.01973 C 456.964111 186.01973 455.947754 185.76564 455.037964 185.257477 Z M 460.308167 184.126389 C 460.988464 183.765747 461.537628 183.216599 461.955627 182.487122 C 462.373657 181.75766 462.586761 180.864258 462.586761 179.798737 C 462.586761 178.733231 462.381836 177.839828 461.963837 177.110367 C 461.545807 176.38089 461.004883 175.831741 460.324585 175.4711 C 459.644287 175.110474 458.906616 174.930145 458.111572 174.930145 C 457.316528 174.930145 456.578888 175.110474 455.89859 175.4711 C 455.218292 175.831741 454.677338 176.38089 454.267517 177.110367 C 453.865906 177.839828 453.66098 178.741425 453.66098 179.798737 C 453.66098 180.856064 453.865906 181.75766 454.267517 182.487122 C 454.677338 183.216599 455.210083 183.765747 455.882202 184.126389 C 456.554291 184.487015 457.291931 184.667343 458.086975 184.667343 C 458.882019 184.667343 459.61969 184.487015 460.299988 184.126389 Z"/>
                            <path id="path23" fill="#00aeef" stroke="none" d="M 483.733154 174.872772 C 484.626587 175.766174 485.069153 177.061188 485.069153 178.757813 L 485.069153 185.839401 L 483.544678 185.839401 L 483.544678 178.938126 C 483.544678 177.626724 483.225037 176.618576 482.593872 175.930099 C 481.962769 175.233414 481.093994 174.88916 480.003845 174.88916 C 478.913757 174.88916 477.962982 175.26619 477.282715 176.020248 C 476.602417 176.774307 476.266357 177.86441 476.266357 179.298767 L 476.266357 185.84761 L 474.741852 185.84761 L 474.741852 178.946335 C 474.741852 177.634918 474.42218 176.626785 473.791077 175.938293 C 473.159973 175.241608 472.282959 174.897369 471.176453 174.897369 C 470.069946 174.897369 469.13559 175.274384 468.455292 176.028442 C 467.774994 176.782501 467.438965 177.87262 467.438965 179.306961 L 467.438965 185.855804 L 465.889862 185.855804 L 465.889862 173.831848 C 465.889862 173.831848 465.914429 173.774475 465.947235 173.774475 L 467.438965 173.774475 L 467.438965 175.856323 C 467.824188 175.102264 468.365143 174.536728 469.078217 174.143311 C 469.783081 173.749878 470.578125 173.553177 471.44693 173.553177 C 472.496063 173.553177 473.414063 173.807251 474.200897 174.307236 C 474.987732 174.807205 475.561462 175.544861 475.91391 176.520233 C 476.24176 175.561264 476.790924 174.831787 477.585968 174.31543 C 478.380981 173.799057 479.274414 173.553177 480.274353 173.553177 C 481.692322 173.553177 482.847961 174.003967 483.741394 174.88916 Z"/>
                            <path id="path24" fill="#00aeef" stroke="none" d="M 504.609131 174.872772 C 505.502502 175.766174 505.945129 177.061188 505.945129 178.757813 L 505.945129 185.839401 L 504.420593 185.839401 L 504.420593 178.938126 C 504.420593 177.626724 504.100952 176.618576 503.469849 175.930099 C 502.838745 175.233414 501.96991 174.88916 500.879822 174.88916 C 499.789734 174.88916 498.838928 175.26619 498.15863 176.020248 C 497.478333 176.774307 497.142273 177.86441 497.142273 179.298767 L 497.142273 185.84761 L 495.617798 185.84761 L 495.617798 178.946335 C 495.617798 177.634918 495.298157 176.626785 494.667053 175.938293 C 494.035889 175.241608 493.158936 174.897369 492.052429 174.897369 C 490.945923 174.897369 490.011536 175.274384 489.331238 176.028442 C 488.65094 176.782501 488.31488 177.87262 488.31488 179.306961 L 488.31488 185.855804 L 486.765808 185.855804 L 486.765808 173.831848 C 486.765808 173.831848 486.790405 173.774475 486.823181 173.774475 L 488.31488 173.774475 L 488.31488 175.856323 C 488.700134 175.102264 489.241089 174.536728 489.954163 174.143311 C 490.659058 173.749878 491.454102 173.553177 492.322876 173.553177 C 493.372009 173.553177 494.289978 173.807251 495.076843 174.307236 C 495.863708 174.807205 496.437439 175.544861 496.789856 176.520233 C 497.117737 175.561264 497.66687 174.831787 498.461914 174.31543 C 499.256958 173.799057 500.15033 173.553177 501.150269 173.553177 C 502.568237 173.553177 503.723938 174.003967 504.61731 174.88916 Z"/>
                            <path id="path25" fill="#00aeef" stroke="none" d="M 519.17395 180.397079 L 509.149841 180.397079 C 509.190857 181.315063 509.41217 182.093704 509.813782 182.741211 C 510.215393 183.388718 510.73175 183.880493 511.387451 184.216537 C 512.034973 184.544388 512.748047 184.716507 513.510254 184.716507 C 514.510254 184.716507 515.362671 184.470627 516.042969 183.987045 C 516.723206 183.503464 517.182251 182.847763 517.403503 182.019943 L 519.042786 182.019943 C 518.747742 183.200195 518.116577 184.167358 517.149414 184.905029 C 516.182251 185.6427 514.969238 186.01973 513.510254 186.01973 C 512.371033 186.01973 511.354675 185.76564 510.453064 185.257477 C 509.551514 184.749298 508.846619 184.02803 508.33844 183.085449 C 507.830261 182.151077 507.576172 181.05278 507.576172 179.798737 C 507.576172 178.544708 507.830261 177.446411 508.330261 176.50383 C 508.8302 175.561264 509.535095 174.839981 510.428467 174.331818 C 511.321899 173.823654 512.354614 173.577759 513.502075 173.577759 C 514.649597 173.577759 515.657715 173.831848 516.52655 174.331818 C 517.387146 174.831787 518.051025 175.512085 518.518188 176.356308 C 518.985413 177.20871 519.214905 178.143097 519.214905 179.175827 C 519.214905 179.708588 519.198486 180.110199 519.17395 180.38887 Z M 517.108459 176.83168 C 516.731445 176.200577 516.215088 175.716995 515.567566 175.389145 C 514.920044 175.061295 514.20697 174.905563 513.444702 174.905563 C 512.297241 174.905563 511.31366 175.274384 510.502258 176.012054 C 509.690796 176.749725 509.240051 177.790649 509.149841 179.134842 L 517.649414 179.134842 C 517.665771 178.233246 517.485474 177.470993 517.108459 176.83168 Z"/>
                            <path id="path26" fill="#00aeef" stroke="none" d="M 524.026123 174.159698 C 524.722839 173.749878 525.583435 173.536774 526.607971 173.536774 L 526.607971 175.151443 C 526.607971 175.151443 526.189941 175.151443 526.189941 175.151443 C 525.067078 175.151443 524.165466 175.454712 523.493347 176.061234 C 522.813049 176.667755 522.47699 177.675903 522.47699 179.093857 L 522.47699 185.839401 L 520.927917 185.839401 L 520.927917 173.815445 C 520.927917 173.815445 520.952515 173.758072 520.985291 173.758072 L 522.47699 173.758072 L 522.47699 175.905502 C 522.813049 175.151443 523.337646 174.569504 524.034302 174.159698 Z"/>
                            <path id="path27" fill="#00aeef" stroke="none" d="M 528.993103 176.512024 C 529.493042 175.577652 530.189758 174.856384 531.074951 174.340012 C 531.960144 173.823654 532.968262 173.577759 534.107544 173.577759 C 535.599304 173.577759 536.828735 173.946594 537.78772 174.684265 C 538.746643 175.421921 539.377808 176.421875 539.656433 177.692291 L 538.000793 177.692291 C 537.795898 176.823486 537.345093 176.13501 536.664795 175.643219 C 535.976318 175.151443 535.123901 174.905563 534.107544 174.905563 C 533.296143 174.905563 532.56665 175.085876 531.919128 175.454712 C 531.271667 175.823547 530.755249 176.372696 530.378235 177.102158 C 530.001221 177.831635 529.812683 178.733231 529.812683 179.790543 C 529.812683 180.84787 530.001221 181.749466 530.378235 182.487122 C 530.755249 183.224792 531.263428 183.782135 531.919128 184.142776 C 532.56665 184.511612 533.296143 184.700119 534.107544 184.700119 C 535.123901 184.700119 535.976318 184.454239 536.664795 183.954269 C 537.353271 183.462479 537.795898 182.774002 538.000793 181.888794 L 539.656433 181.888794 C 539.377808 183.126434 538.746643 184.126389 537.77948 184.872253 C 536.804138 185.626297 535.582886 186.003342 534.107544 186.003342 C 532.968262 186.003342 531.960144 185.749252 531.074951 185.241074 C 530.189758 184.73291 529.493042 184.011642 528.993103 183.069061 C 528.493103 182.134689 528.239014 181.036377 528.239014 179.782349 C 528.239014 178.52832 528.493103 177.430023 528.993103 176.495636 Z"/>
                            <path id="path28" fill="#00aeef" stroke="none" d="M 552.959045 180.397079 L 542.934937 180.397079 C 542.975952 181.315063 543.197266 182.093704 543.598877 182.741211 C 544.000488 183.388718 544.516846 183.880493 545.172546 184.216537 C 545.820068 184.544388 546.533142 184.716507 547.295349 184.716507 C 548.295349 184.716507 549.139526 184.470627 549.828064 183.987045 C 550.516541 183.503464 550.967346 182.847763 551.188599 182.019943 L 552.827881 182.019943 C 552.532837 183.200195 551.901733 184.167358 550.93457 184.905029 C 549.967407 185.650894 548.754333 186.01973 547.295349 186.01973 C 546.156128 186.01973 545.139771 185.76564 544.238159 185.257477 C 543.336609 184.749298 542.631714 184.02803 542.123535 183.085449 C 541.615356 182.151077 541.361267 181.05278 541.361267 179.798737 C 541.361267 178.544708 541.615356 177.446411 542.115356 176.50383 C 542.615295 175.561264 543.32019 174.839981 544.221802 174.331818 C 545.123352 173.823654 546.147888 173.577759 547.295349 173.577759 C 548.442871 173.577759 549.450989 173.831848 550.311646 174.331818 C 551.172241 174.831787 551.836121 175.512085 552.303345 176.356308 C 552.770508 177.20871 553 178.143097 553 179.175827 C 553 179.708588 552.983582 180.110199 552.959045 180.38887 Z M 550.893555 176.83168 C 550.516541 176.200577 550.000183 175.716995 549.352661 175.389145 C 548.705139 175.061295 547.992065 174.905563 547.229797 174.905563 C 546.082336 174.905563 545.098816 175.274384 544.287354 176.012054 C 543.475891 176.749725 543.025146 177.790649 542.934937 179.134842 L 551.434509 179.134842 C 551.450928 178.233246 551.270569 177.470993 550.893555 176.83168 Z"/>
                        </g>
                    </g>
                    <g id="g8">
                        <path id="path29" fill="#1d4990" stroke="none" d="M 430.785156 164.291367 C 430.785156 166.643707 429.063934 168.553436 426.932892 168.553436 L 418.392365 168.553436 C 415.392517 168.553436 413.556549 164.930679 415.097443 162.078369 L 418.67923 155.431183 C 419.384125 154.144363 420.621765 153.357513 421.974152 153.357513 L 426.916504 153.357513 C 429.039337 153.357513 430.768768 155.275452 430.768768 157.619583 L 430.785156 164.291367 Z"/>
                        <path id="path30" fill="#00aeef" stroke="none" d="M 430.785156 181.872406 C 430.785156 184.224731 429.063934 186.134476 426.932892 186.134476 L 418.392365 186.134476 C 415.392517 186.134476 413.556549 182.511719 415.097443 179.659409 L 418.67923 173.012222 C 419.384125 171.725403 420.621765 170.938553 421.974152 170.938553 L 426.916504 170.938553 C 429.039337 170.938553 430.768768 172.856491 430.768768 175.200623 L 430.785156 181.872406 Z"/>
                        <path id="path31" fill="#00aeef" stroke="none" d="M 398 157.619583 C 398 155.275452 399.721222 153.357513 401.852264 153.357513 L 410.392792 153.357513 C 413.392639 153.357513 415.228607 156.980286 413.687683 159.832581 L 410.105927 166.479767 C 409.401031 167.766586 408.163391 168.553436 406.811005 168.553436 L 401.868652 168.553436 C 399.73761 168.553436 398.016388 166.643707 398.016388 164.291367 L 398 157.619583 Z"/>
                        <path id="path32" fill="#1d4990" stroke="none" d="M 398 175.208817 C 398 172.856491 399.721222 170.946747 401.852264 170.946747 L 410.392792 170.946747 C 413.392639 170.946747 415.228607 174.569504 413.687683 177.421814 L 410.105927 184.069016 C 409.401031 185.35582 408.163391 186.14267 406.811005 186.14267 L 401.868652 186.14267 C 399.73761 186.14267 398.016388 184.224731 398.016388 181.8806 L 398 175.208817 Z"/>
                    </g>
                </g>
            </g>
        </g>
    </g>
</svg>
