<?xml version="1.0" encoding="UTF-8" standalone="no"?>
<svg
   xmlns:dc="http://purl.org/dc/elements/1.1/"
   xmlns:cc="http://creativecommons.org/ns#"
   xmlns:rdf="http://www.w3.org/1999/02/22-rdf-syntax-ns#"
   xmlns:svg="http://www.w3.org/2000/svg"
   xmlns="http://www.w3.org/2000/svg"
   xmlns:xlink="http://www.w3.org/1999/xlink"
   xmlns:sodipodi="http://sodipodi.sourceforge.net/DTD/sodipodi-0.dtd"
   xmlns:inkscape="http://www.inkscape.org/namespaces/inkscape"
   version="1.1"
   id="Layer_1"
   x="0px"
   y="0px"
   viewBox="0 0 574 183.4"
   xml:space="preserve"
   sodipodi:docname="flat-logo-snap.svg"
   width="574"
   height="183.39999"
   inkscape:version="1.0.2 (e86c8708, 2021-01-15)"><metadata
   id="metadata975"><rdf:RDF><cc:Work
       rdf:about=""><dc:format>image/svg+xml</dc:format><dc:type
         rdf:resource="http://purl.org/dc/dcmitype/StillImage" /><dc:title></dc:title></cc:Work></rdf:RDF></metadata><defs
   id="defs973" /><sodipodi:namedview
   pagecolor="#ffffff"
   bordercolor="#666666"
   borderopacity="1"
   objecttolerance="10"
   gridtolerance="10"
   guidetolerance="10"
   inkscape:pageopacity="0"
   inkscape:pageshadow="2"
   inkscape:window-width="1792"
   inkscape:window-height="1067"
   id="namedview971"
   showgrid="false"
   fit-margin-top="0"
   fit-margin-left="0"
   fit-margin-right="0"
   fit-margin-bottom="0"
   inkscape:zoom="1.6506024"
   inkscape:cx="311.18248"
   inkscape:cy="-42.632848"
   inkscape:window-x="1440"
   inkscape:window-y="1800"
   inkscape:window-maximized="0"
   inkscape:current-layer="Layer_1" />
<style
   type="text/css"
   id="style850">
	.st0{fill:url(#SVGID_1_);}
	.st1{fill:#FFFFFF;}
	.st2{fill:#00CEE1;}
	.st3{clip-path:url(#SVGID_3_);}
	.st4{clip-path:url(#SVGID_5_);fill:url(#SVGID_6_);}
	.st5{clip-path:url(#SVGID_8_);fill:url(#SVGID_9_);}
	.st6{clip-path:url(#SVGID_11_);fill:#515151;}
	.st7{fill:#515151;}
</style>
<g
   id="g865"
   transform="translate(-45,-45.8)">
	
		
	<g
   id="g863">
		<linearGradient
   id="SVGID_1_"
   gradientUnits="userSpaceOnUse"
   x1="50"
   y1="112.79"
   x2="614"
   y2="112.79">
			<stop
   offset="0"
   style="stop-color:#3A23AD"
   id="stop854" />
			<stop
   offset="1"
   style="stop-color:#4C3CE2"
   id="stop856" />
		</linearGradient>
		<path
   class="st0"
   d="m 552,174.8 c -20.3,0 -39.3,-9.9 -50.9,-26.6 -0.9,-1.3 -2.5,-2.1 -4.1,-2.1 -1.6,0 -3.2,0.8 -4.1,2.1 -11.6,16.7 -30.6,26.6 -50.9,26.6 -20.3,0 -39.3,-9.9 -50.9,-26.6 -0.9,-1.3 -2.5,-2.1 -4.1,-2.1 -1.6,0 -3.2,0.8 -4.1,2.1 -11.6,16.7 -30.6,26.6 -50.9,26.6 -20.3,0 -39.3,-9.9 -50.9,-26.6 -0.9,-1.3 -2.5,-2.1 -4.1,-2.1 -1.6,0 -3.2,0.8 -4.1,2.1 -11.6,16.7 -30.6,26.6 -50.9,26.6 -20.3,0 -39.3,-9.9 -50.9,-26.6 -0.9,-1.3 -2.5,-2.1 -4.1,-2.1 -1.6,0 -3.2,0.8 -4.1,2.1 -11.6,16.7 -30.6,26.6 -50.9,26.6 -34.2,0 -62,-27.8 -62,-62 0,-34.2 27.8,-62 62,-62 20.3,0 39.3,9.9 50.9,26.6 0.9,1.3 2.5,2.1 4.1,2.1 1.6,0 3.2,-0.8 4.1,-2.1 11.6,-16.7 30.6,-26.6 50.9,-26.6 20.3,0 39.3,9.9 50.9,26.6 0.9,1.3 2.5,2.1 4.1,2.1 1.6,0 3.2,-0.8 4.1,-2.1 11.6,-16.7 30.6,-26.6 50.9,-26.6 20.3,0 39.3,9.9 50.9,26.6 0.9,1.3 2.5,2.1 4.1,2.1 1.6,0 3.2,-0.8 4.1,-2.1 11.6,-16.7 30.6,-26.6 50.9,-26.6 20.3,0 39.3,9.9 50.9,26.6 0.9,1.3 2.5,2.1 4.1,2.1 1.6,0 3.2,-0.8 4.1,-2.1 11.6,-16.7 30.6,-26.6 50.9,-26.6 34.2,0 62,27.8 62,62 0,34.2 -27.8,62 -62,62 z"
   id="path859"
   style="fill:url(#SVGID_1_)" />
		<path
   class="st1"
   d="m 552,55.8 c 31.4,0 57,25.6 57,57 0,31.4 -25.6,57 -57,57 -18.6,0 -36.1,-9.1 -46.8,-24.5 -1.9,-2.7 -4.9,-4.3 -8.2,-4.3 -3.3,0 -6.3,1.6 -8.2,4.3 -10.7,15.3 -28.2,24.5 -46.8,24.5 -18.6,0 -36.1,-9.1 -46.8,-24.5 -1.9,-2.7 -4.9,-4.3 -8.2,-4.3 -3.3,0 -6.3,1.6 -8.2,4.3 -10.7,15.3 -28.2,24.5 -46.8,24.5 -18.6,0 -36.1,-9.1 -46.8,-24.5 -1.9,-2.7 -4.9,-4.3 -8.2,-4.3 -3.3,0 -6.3,1.6 -8.2,4.3 -10.7,15.3 -28.2,24.5 -46.8,24.5 -18.6,0 -36.1,-9.1 -46.8,-24.5 -1.9,-2.7 -4.9,-4.3 -8.2,-4.3 -3.3,0 -6.3,1.6 -8.2,4.3 -10.7,15.3 -28.2,24.5 -46.8,24.5 -31.4,0 -57,-25.6 -57,-57 0,-31.4 25.6,-57 57,-57 18.6,0 36.1,9.1 46.8,24.5 1.9,2.7 4.9,4.3 8.2,4.3 3.3,0 6.3,-1.6 8.2,-4.3 10.7,-15.3 28.2,-24.5 46.8,-24.5 18.6,0 36.1,9.1 46.8,24.5 1.9,2.7 4.9,4.3 8.2,4.3 3.3,0 6.3,-1.6 8.2,-4.3 10.7,-15.3 28.2,-24.5 46.8,-24.5 18.6,0 36.1,9.1 46.8,24.5 1.9,2.7 4.9,4.3 8.2,4.3 3.3,0 6.3,-1.6 8.2,-4.3 10.7,-15.3 28.2,-24.5 46.8,-24.5 18.6,0 36.1,9.1 46.8,24.5 1.9,2.7 4.9,4.3 8.2,4.3 3.3,0 6.3,-1.6 8.2,-4.3 10.7,-15.4 28.2,-24.5 46.8,-24.5 m 0,-10 c -22.8,0 -42.9,11.4 -55,28.8 -12.1,-17.4 -32.2,-28.8 -55,-28.8 -22.8,0 -42.9,11.4 -55,28.8 -12.1,-17.4 -32.2,-28.8 -55,-28.8 -22.8,0 -42.9,11.4 -55,28.8 -12.1,-17.4 -32.2,-28.8 -55,-28.8 -22.8,0 -42.9,11.4 -55,28.8 -12.1,-17.4 -32.2,-28.8 -55,-28.8 -37,0 -67,30 -67,67 0,37 30,67 67,67 22.8,0 42.9,-11.4 55,-28.8 12.1,17.4 32.2,28.8 55,28.8 22.8,0 42.9,-11.4 55,-28.8 12.1,17.4 32.2,28.8 55,28.8 22.8,0 42.9,-11.4 55,-28.8 12.1,17.4 32.2,28.8 55,28.8 22.8,0 42.9,-11.4 55,-28.8 12.1,17.4 32.2,28.8 55,28.8 37,0 67,-30 67,-67 0,-37 -30,-67 -67,-67 z"
   id="path861" />
	</g>
</g>
<path
   class="st1"
   d="m 49.8,72.9 c 4.1,3.6 12.7,7.2 19.1,7.2 5.2,0 7.3,-1.7 7.3,-4.1 0,-2.8 -3.7,-3.8 -9.3,-4.7 C 57.7,69.7 44.6,67.8 44.6,54 c 0,-9.6 8.2,-17.9 23.3,-17.9 9.1,0 16.9,2.9 22.7,7.2 L 84,54.8 c -3.3,-3.2 -9.5,-6 -16,-6 -4.1,0 -6.9,1.4 -6.9,3.7 0,2.5 2.9,3.4 8.7,4.4 9.2,1.6 23,3.8 23,18.2 0,10.4 -9.1,18 -24.8,18 -9.7,0 -19.7,-3.3 -25.4,-8.3 z"
   id="path867" />
<path
   class="st1"
   d="m 188.3,60.4 c 0,-6.6 -3.5,-9 -8.9,-9 -5.2,0 -8.6,2.8 -10.6,5.3 V 91.8 H 151.5 V 37.4 h 17.3 V 44 c 3.3,-3.8 9.7,-8 18.8,-8 12.4,0 18,7.2 18,17.2 v 38.5 h -17.3 z"
   id="path869" />
<path
   class="st1"
   d="m 296.6,86.4 c -3.4,4.1 -9.9,6.8 -16.9,6.8 -8.3,0 -18.7,-5.6 -18.7,-17.9 0,-13.2 10.4,-17.1 18.7,-17.1 7.2,0 13.6,2.3 16.9,6.3 v -6.9 c 0,-4.7 -4.1,-7.9 -11,-7.9 -5.4,0 -11,2 -15.4,5.7 L 264,44.5 c 7,-6 16.3,-8.4 24.7,-8.4 13.1,0 25.3,4.8 25.3,21.7 v 34 h -17.3 v -5.4 z m 0,-13.4 c -1.8,-2.5 -5.9,-3.8 -9.7,-3.8 -4.6,0 -8.7,2 -8.7,6.3 0,4.3 4.1,6.3 8.7,6.3 3.8,0 7.9,-1.4 9.7,-3.9 z"
   id="path871" />
<path
   class="st1"
   d="M 371.7,112.5 V 37.4 H 389 v 6.3 c 4.3,-5.2 9.9,-7.7 16.1,-7.7 13.6,0 23.9,10.1 23.9,28.5 0,18.5 -10.2,28.6 -23.9,28.6 -6.1,0 -11.6,-2.4 -16.1,-7.8 v 27.1 h -17.3 z m 27.7,-61.1 c -3.7,0 -8.2,2 -10.4,5 V 73 c 2.1,2.8 6.6,5 10.4,5 6.8,0 11.9,-5.1 11.9,-13.3 0.1,-8.3 -5.1,-13.3 -11.9,-13.3 z"
   id="path873" />
<path
   class="st2"
   d="m 507.7,87 c 5.7,0 10.6,4.8 10.6,10.6 0,5.6 -4.8,10.5 -10.6,10.5 -5.8,0 -10.5,-4.8 -10.5,-10.5 0,-5.8 4.7,-10.6 10.5,-10.6 z m -10.4,-55.3 22.1,-9.2 -4,58.1 H 500 Z"
   id="path875" />
<g
   id="g968"
   transform="translate(-45,-45.8)">
	<g
   id="Artwork_1_5_">
		<g
   id="g945">
			<defs
   id="defs878">
				<rect
   id="SVGID_2_"
   x="447.5"
   y="197.3"
   width="156.89999"
   height="31.9" />
			</defs>
			<clipPath
   id="SVGID_3_">
				<use
   xlink:href="#SVGID_2_"
   style="overflow:visible"
   id="use880"
   x="0"
   y="0"
   width="100%"
   height="100%" />
			</clipPath>
			<g
   class="st3"
   clip-path="url(#SVGID_3_)"
   id="g896">
				<defs
   id="defs884">
					<path
   id="SVGID_4_"
   d="m 467.4,197.3 -13.7,6.6 c 0,0 -0.1,0.1 -0.2,0.1 -3.8,1.8 -5,7.1 -2.8,11.7 l 13.7,-6.6 c 0.1,0 0.1,0 0.2,-0.1 3.7,-1.9 5,-7.1 2.8,-11.7 z" />
				</defs>
				<clipPath
   id="SVGID_5_">
					<use
   xlink:href="#SVGID_4_"
   style="overflow:visible"
   id="use886"
   x="0"
   y="0"
   width="100%"
   height="100%" />
				</clipPath>
				
					<linearGradient
   id="SVGID_6_"
   gradientUnits="userSpaceOnUse"
   x1="-879.64032"
   y1="-197.1219"
   x2="-879.16168"
   y2="-197.1219"
   gradientTransform="matrix(39.5597,0,0,-39.5597,35247.832,-7591.5972)">
					<stop
   offset="0"
   style="stop-color:#3A23AD"
   id="stop889" />
					<stop
   offset="1"
   style="stop-color:#4C3CE2"
   id="stop891" />
				</linearGradient>
				<rect
   x="448.39999"
   y="197.3"
   class="st4"
   width="21.200001"
   height="18.4"
   clip-path="url(#SVGID_5_)"
   id="rect894"
   style="fill:url(#SVGID_6_)" />
			</g>
			<g
   class="st3"
   clip-path="url(#SVGID_3_)"
   id="g911">
				<defs
   id="defs899">
					<path
   id="SVGID_7_"
   d="m 451.6,217.4 c 0,0 -0.1,0 -0.2,0.1 -3.8,1.8 -5,7.1 -2.8,11.7 l 13.7,-6.6 c 0.1,0 0.1,0 0.2,-0.1 3.8,-1.8 5,-7.1 2.8,-11.7 z" />
				</defs>
				<clipPath
   id="SVGID_8_">
					<use
   xlink:href="#SVGID_7_"
   style="overflow:visible"
   id="use901"
   x="0"
   y="0"
   width="100%"
   height="100%" />
				</clipPath>
				
					<linearGradient
   id="SVGID_9_"
   gradientUnits="userSpaceOnUse"
   x1="-879.60382"
   y1="-196.7428"
   x2="-879.12518"
   y2="-196.7428"
   gradientTransform="matrix(39.5822,0,0,-39.5822,35264.156,-7567.4854)">
					<stop
   offset="0"
   style="stop-color:#3A23AD"
   id="stop904" />
					<stop
   offset="1"
   style="stop-color:#4C3CE2"
   id="stop906" />
				</linearGradient>
				<rect
   x="446.39999"
   y="210.8"
   class="st5"
   width="21.200001"
   height="18.4"
   clip-path="url(#SVGID_8_)"
   id="rect909"
   style="fill:url(#SVGID_9_)" />
			</g>
			<g
   class="st3"
   clip-path="url(#SVGID_3_)"
   id="g943">
				<defs
   id="defs914">
					<rect
   id="SVGID_10_"
   x="447.5"
   y="197.3"
   width="156.89999"
   height="31.9" />
				</defs>
				<clipPath
   id="SVGID_11_">
					<use
   xlink:href="#SVGID_10_"
   style="overflow:visible"
   id="use916"
   x="0"
   y="0"
   width="100%"
   height="100%" />
				</clipPath>
				<path
   class="st6"
   d="m 480.6,215.6 c 0.8,0.7 2.5,1.4 3.8,1.4 1,0 1.4,-0.3 1.4,-0.8 0,-0.6 -0.7,-0.8 -1.8,-0.9 -1.8,-0.3 -4.4,-0.7 -4.4,-3.4 0,-1.9 1.6,-3.5 4.6,-3.5 1.8,0 3.3,0.6 4.5,1.4 l -1.3,2.2 c -0.6,-0.6 -1.9,-1.2 -3.2,-1.2 -0.8,0 -1.3,0.3 -1.3,0.7 0,0.5 0.6,0.7 1.7,0.9 1.8,0.3 4.5,0.8 4.5,3.6 0,2 -1.8,3.5 -4.9,3.5 -1.9,0 -3.9,-0.6 -5,-1.6 z"
   clip-path="url(#SVGID_11_)"
   id="path919" />
				<path
   class="st6"
   d="m 495.4,208.3 c 3.2,0 5.5,2.3 5.5,5.9 v 0.7 h -7.6 c 0.2,1 1.1,1.9 2.7,1.9 1,0 2,-0.4 2.6,-0.9 l 1.4,2.1 c -1.1,1 -2.8,1.4 -4.5,1.4 -3.3,0 -5.8,-2.2 -5.8,-5.6 0,-3 2.3,-5.5 5.7,-5.5 m -2.2,4.5 h 4.4 c -0.1,-0.8 -0.6,-1.8 -2.2,-1.8 -1.5,0 -2.1,1 -2.2,1.8"
   clip-path="url(#SVGID_11_)"
   id="path921" />
				<path
   class="st6"
   d="m 508.4,218.2 c -0.7,0.8 -2,1.3 -3.3,1.3 -1.6,0 -3.7,-1.1 -3.7,-3.5 0,-2.6 2,-3.3 3.7,-3.3 1.4,0 2.7,0.4 3.3,1.2 v -1.3 c 0,-0.9 -0.8,-1.5 -2.2,-1.5 -1.1,0 -2.2,0.4 -3,1.1 L 502,210 c 1.4,-1.2 3.2,-1.7 4.8,-1.7 2.6,0 5,1 5,4.3 v 6.7 h -3.4 z m 0,-2.6 c -0.3,-0.5 -1.1,-0.8 -1.9,-0.8 -0.9,0 -1.7,0.4 -1.7,1.2 0,0.8 0.8,1.2 1.7,1.2 0.8,0 1.5,-0.3 1.9,-0.8 z"
   clip-path="url(#SVGID_11_)"
   id="path923" />
				<path
   class="st6"
   d="m 513.8,208.6 h 3.4 v 1.3 c 0.7,-0.9 2.1,-1.6 3.3,-1.6 v 3.3 c -0.2,0 -0.5,-0.1 -0.9,-0.1 -0.9,0 -2.1,0.4 -2.5,1 v 6.7 h -3.4 v -10.6 z"
   clip-path="url(#SVGID_11_)"
   id="path925" />
				<path
   class="st6"
   d="m 526.8,208.3 c 2.3,0 3.7,1 4.4,2 l -2.2,2.1 c -0.4,-0.6 -1.1,-1 -2,-1 -1.4,0 -2.5,1 -2.5,2.6 0,1.6 1.1,2.6 2.5,2.6 0.9,0 1.6,-0.4 2,-1.1 l 2.2,2.1 c -0.6,0.9 -2.1,2 -4.4,2 -3.3,0 -5.8,-2.2 -5.8,-5.6 0,-3.4 2.5,-5.7 5.8,-5.7"
   clip-path="url(#SVGID_11_)"
   id="path927" />
				<path
   class="st6"
   d="m 539.5,213.1 c 0,-1.3 -0.7,-1.7 -1.8,-1.7 -1,0 -1.7,0.6 -2.1,1.1 v 6.9 h -3.4 v -14.8 l 3.4,-1.6 v 7 c 0.6,-0.8 1.9,-1.6 3.7,-1.6 2.4,0 3.5,1.4 3.5,3.3 v 7.7 h -3.4 v -6.3 z"
   clip-path="url(#SVGID_11_)"
   id="path929" />
				<path
   class="st6"
   d="m 545.5,215.6 c 0.8,0.7 2.5,1.4 3.8,1.4 1,0 1.4,-0.3 1.4,-0.8 0,-0.6 -0.7,-0.8 -1.8,-0.9 -1.8,-0.3 -4.4,-0.7 -4.4,-3.4 0,-1.9 1.6,-3.5 4.6,-3.5 1.8,0 3.3,0.6 4.5,1.4 l -1.3,2.2 c -0.6,-0.6 -1.9,-1.2 -3.2,-1.2 -0.8,0 -1.3,0.3 -1.3,0.7 0,0.5 0.6,0.7 1.7,0.9 1.8,0.3 4.5,0.8 4.5,3.6 0,2 -1.8,3.5 -4.9,3.5 -1.9,0 -3.9,-0.6 -5,-1.6 z"
   clip-path="url(#SVGID_11_)"
   id="path931" />
				<path
   class="st6"
   d="m 555.3,223.4 v -14.8 h 3.4 v 1.2 c 0.9,-1 2,-1.5 3.2,-1.5 2.7,0 4.7,2 4.7,5.6 0,3.6 -2,5.6 -4.7,5.6 -1.2,0 -2.3,-0.5 -3.2,-1.5 v 5.3 h -3.4 z m 5.4,-12 c -0.7,0 -1.6,0.4 -2,1 v 3.3 c 0.4,0.6 1.3,1 2,1 1.3,0 2.3,-1 2.3,-2.6 0.1,-1.8 -1,-2.7 -2.3,-2.7"
   clip-path="url(#SVGID_11_)"
   id="path933" />
				<path
   class="st6"
   d="m 567.9,208.6 h 3.4 v 1.3 c 0.7,-0.9 2.1,-1.6 3.3,-1.6 v 3.3 c -0.2,0 -0.5,-0.1 -0.9,-0.1 -0.9,0 -2.1,0.4 -2.5,1 v 6.7 h -3.4 v -10.6 z"
   clip-path="url(#SVGID_11_)"
   id="path935" />
				<path
   class="st6"
   d="m 575.5,205.3 c 0,-1.1 0.9,-2 2,-2 1.1,0 2,0.9 2,2 0,1.1 -0.9,2 -2,2 -1.1,0 -2,-0.9 -2,-2 m 0.3,3.3 h 3.4 v 10.7 h -3.4 z"
   clip-path="url(#SVGID_11_)"
   id="path937" />
				<path
   class="st6"
   d="m 588.5,213.1 c 0,-1.3 -0.7,-1.8 -1.7,-1.8 -1,0 -1.7,0.6 -2.1,1.1 v 6.9 h -3.4 v -10.7 h 3.4 v 1.3 c 0.6,-0.8 1.9,-1.6 3.7,-1.6 2.4,0 3.5,1.4 3.5,3.4 v 7.6 h -3.4 z"
   clip-path="url(#SVGID_11_)"
   id="path939" />
				<path
   class="st6"
   d="m 595.1,219.6 c 0.8,0.9 2,1.2 3.3,1.2 1.1,0 2.7,-0.5 2.7,-2.4 v -0.8 c -0.9,1.1 -2,1.5 -3.2,1.5 -2.6,0 -4.7,-1.8 -4.7,-5.4 0,-3.5 2,-5.4 4.7,-5.4 1.2,0 2.3,0.5 3.2,1.5 v -1.2 h 3.4 v 9.7 c 0,4.4 -3.4,5.3 -6.1,5.3 -1.8,0 -3.3,-0.5 -4.7,-1.6 z m 5.9,-7.3 c -0.4,-0.6 -1.3,-1 -2,-1 -1.3,0 -2.3,0.8 -2.3,2.3 0,1.6 1,2.4 2.3,2.4 0.7,0 1.6,-0.4 2,-1 z"
   clip-path="url(#SVGID_11_)"
   id="path941" />
			</g>
		</g>
	</g>
	<g
   id="g966">
		<path
   class="st7"
   d="m 353.5,205.6 c 2.4,0 4.1,1.1 4.9,2.8 L 357,209 c -0.7,-1.4 -2.1,-2.1 -3.6,-2.1 -2.6,0 -5.1,2.3 -5.1,5.8 0,2.4 1.6,4 4.1,4 1.1,0 2.3,-0.5 3.2,-1.4 l 1.1,0.8 c -1.3,1.4 -2.9,1.9 -4.4,1.9 -3.2,0 -5.5,-2.1 -5.5,-5.3 0,-4.3 3.2,-7.1 6.7,-7.1 z"
   id="path948" />
		<path
   class="st7"
   d="m 360.2,209.1 h 1.4 l -0.3,1.3 c 0.9,-1 1.7,-1.5 3.2,-1.5 l -0.3,1.4 c -0.1,0 -0.4,-0.1 -0.7,-0.1 -1,0 -2,0.7 -2.5,1.4 l -1.4,6.1 h -1.4 z"
   id="path950" />
		<path
   class="st7"
   d="m 369.4,208.9 c 2.3,0 3.7,1.6 3.7,3.8 0,0.4 -0.1,1 -0.1,1.2 h -7.1 c 0,0.1 0,0.3 0,0.4 0,1.4 1,2.6 3,2.6 0.8,0 1.8,-0.3 2.5,-0.8 l 0.5,0.9 c -0.8,0.6 -1.9,1 -3,1 -2.6,0 -4.2,-1.5 -4.2,-3.9 -0.2,-2.8 2,-5.2 4.7,-5.2 z m 2.5,3.7 c 0,-1.4 -0.9,-2.6 -2.6,-2.6 -1.6,0 -3,1.4 -3.2,2.9 h 5.8 c 0,0 0,-0.2 0,-0.3 z"
   id="path952" />
		<path
   class="st7"
   d="m 382.5,209.1 h 1.4 l -1.9,8.7 h -1.3 l 0.3,-1.2 c -0.7,0.9 -1.7,1.5 -2.9,1.5 -2,0 -3.4,-1.3 -3.4,-3.6 0,-2.8 1.7,-5.5 4.6,-5.5 1.3,0 2.4,0.6 3,1.6 z m -4,7.7 c 1.1,0 2.1,-0.7 2.6,-1.5 l 0.9,-3.8 c -0.4,-0.8 -1.4,-1.4 -2.6,-1.4 -2,0 -3.3,2 -3.3,4.1 0,1.6 0.9,2.6 2.4,2.6 z"
   id="path954" />
		<path
   class="st7"
   d="m 385.3,215.9 1.3,-5.7 h -1.4 l 0.3,-1.2 h 1.4 l 0.5,-2.4 h 1.3 l -0.5,2.4 h 1.8 l -0.3,1.2 H 388 l -1.2,5.4 c 0,0.1 0,0.2 0,0.4 0,0.5 0.3,0.8 0.9,0.8 0.3,0 0.6,-0.1 0.8,-0.3 l 0.2,1.1 c -0.3,0.3 -0.8,0.4 -1.3,0.4 -1.2,0 -2,-0.5 -2,-1.6 -0.1,0 -0.1,-0.3 -0.1,-0.5 z"
   id="path956" />
		<path
   class="st7"
   d="m 395.2,208.9 c 2.3,0 3.7,1.6 3.7,3.8 0,0.4 -0.1,1 -0.1,1.2 h -7.1 c 0,0.1 0,0.3 0,0.4 0,1.4 1,2.6 3,2.6 0.8,0 1.8,-0.3 2.5,-0.8 l 0.5,0.9 c -0.8,0.6 -1.9,1 -3,1 -2.6,0 -4.2,-1.5 -4.2,-3.9 -0.2,-2.8 1.9,-5.2 4.7,-5.2 z m 2.5,3.7 c 0,-1.4 -0.9,-2.6 -2.6,-2.6 -1.6,0 -3,1.4 -3.2,2.9 h 5.8 c 0,0 0,-0.2 0,-0.3 z"
   id="path958" />
		<path
   class="st7"
   d="m 409.1,205.8 h 1.4 l -2.7,12 h -1.4 l 0.3,-1.2 c -0.7,0.9 -1.7,1.5 -2.9,1.5 -2,0 -3.4,-1.3 -3.4,-3.6 0,-2.8 1.7,-5.5 4.6,-5.5 1.4,0 2.4,0.6 3,1.6 z m -4.8,11 c 1.1,0 2.1,-0.7 2.6,-1.5 l 0.9,-3.8 c -0.4,-0.8 -1.4,-1.4 -2.6,-1.4 -2,0 -3.3,2 -3.3,4.1 0,1.6 0.9,2.6 2.4,2.6 z"
   id="path960" />
		<path
   class="st7"
   d="M 416.4,217.8 H 415 l 2.6,-12 h 1.4 l -1,4.6 c 0.7,-0.9 1.7,-1.5 2.9,-1.5 2,0 3.4,1.3 3.4,3.6 0,2.8 -1.8,5.5 -4.6,5.5 -1.4,0 -2.4,-0.6 -3,-1.6 z m 4.1,-7.7 c -1.1,0 -2.1,0.7 -2.7,1.5 l -0.8,3.8 c 0.4,0.8 1.4,1.4 2.6,1.4 2,0 3.3,-2 3.3,-4.1 0,-1.6 -1,-2.6 -2.4,-2.6 z"
   id="path962" />
		<path
   class="st7"
   d="m 425.5,220.1 c 0.5,0 0.8,-0.2 1.3,-0.9 l 0.9,-1.4 -1.7,-8.8 h 1.4 l 1.3,7.1 4.5,-7.1 h 1.5 l -6.7,10.5 c -0.8,1.2 -1.6,1.8 -2.7,1.8 -0.4,0 -0.8,-0.1 -1.1,-0.2 l 0.5,-1.2 c 0.2,0.1 0.5,0.2 0.8,0.2 z"
   id="path964" />
	</g>
</g>
</svg>
