<?xml version="1.0" encoding="UTF-8"?>
<!-- Generated by Pixelmator Pro 3.3.2 -->
<svg width="584" height="145" viewBox="0 0 584 145" xmlns="http://www.w3.org/2000/svg" xmlns:xlink="http://www.w3.org/1999/xlink">
    <g id="flat-minimal-logo-snap">
        <g id="g1">
            <g id="g9">
                <g id="g10">
                    <path id="path33" fill="#1d4990" stroke="none" d="M 512 133.600006 C 491.700012 133.600006 472.700012 123.699997 461.100006 107 C 460.200012 105.699997 458.600006 104.900009 457 104.900009 C 455.399994 104.900009 453.799988 105.699997 452.899994 107 C 441.299988 123.699997 422.299988 133.600006 402 133.600006 C 381.700012 133.600006 362.700012 123.699997 351.100006 107 C 350.200012 105.699997 348.600006 104.900009 347 104.900009 C 345.399994 104.900009 343.799988 105.699997 342.899994 107 C 331.299988 123.699997 312.299988 133.600006 292 133.600006 C 271.700012 133.600006 252.700012 123.699997 241.100006 107 C 240.200012 105.699997 238.600006 104.900009 237 104.900009 C 235.399994 104.900009 233.799988 105.699997 232.899994 107 C 221.299988 123.699997 202.300003 133.600006 182 133.600006 C 161.699997 133.600006 142.699997 123.699997 131.100006 107 C 130.199997 105.699997 128.600006 104.900009 127 104.900009 C 125.399994 104.900009 123.800003 105.699997 122.899994 107 C 111.300003 123.699997 92.300003 133.600006 72 133.600006 C 37.800003 133.600006 10 105.800003 10 71.600006 C 10 37.399994 37.800003 9.600006 72 9.600006 C 92.300003 9.600006 111.300003 19.5 122.899994 36.199997 C 123.800003 37.5 125.399994 38.300003 127 38.300003 C 128.600006 38.300003 130.199997 37.5 131.100006 36.199997 C 142.699997 19.5 161.699997 9.600006 182 9.600006 C 202.300003 9.600006 221.299988 19.5 232.899994 36.199997 C 233.799988 37.5 235.399994 38.300003 237 38.300003 C 238.600006 38.300003 240.200012 37.5 241.100006 36.199997 C 252.700012 19.5 271.700012 9.600006 292 9.600006 C 312.299988 9.600006 331.299988 19.5 342.899994 36.199997 C 343.799988 37.5 345.399994 38.300003 347 38.300003 C 348.600006 38.300003 350.200012 37.5 351.100006 36.199997 C 362.700012 19.5 381.700012 9.600006 402 9.600006 C 422.299988 9.600006 441.299988 19.5 452.899994 36.199997 C 453.799988 37.5 455.399994 38.300003 457 38.300003 C 458.600006 38.300003 460.200012 37.5 461.100006 36.199997 C 472.700012 19.5 491.700012 9.600006 512 9.600006 C 546.200012 9.600006 574 37.399994 574 71.600006 C 574 105.800003 546.200012 133.600006 512 133.600006 Z"/>
                </g>
            </g>
            <path id="path34" fill="#ffffff" stroke="none" d="M 54.800003 77.5 C 58.900002 81.100006 67.5 84.700005 73.900002 84.700005 C 79.099998 84.700005 81.199997 83 81.199997 80.600006 C 81.199997 77.800003 77.5 76.800003 71.900002 75.900002 C 62.699997 74.300003 49.599998 72.400002 49.599998 58.600006 C 49.599998 49 57.800003 40.699997 72.900002 40.699997 C 82 40.699997 89.800003 43.600006 95.600006 47.899994 L 89 59.399994 C 85.699997 56.199997 79.5 53.399994 73 53.399994 C 68.900002 53.399994 66.099998 54.800003 66.099998 57.100006 C 66.099998 59.600006 69 60.5 74.800003 61.5 C 84 63.100006 97.800003 65.300003 97.800003 79.700005 C 97.800003 90.100006 88.699997 97.699997 73 97.699997 C 63.300003 97.699997 53.300003 94.400009 47.599998 89.400009 L 54.800003 77.5 Z"/>
            <path id="path35" fill="#ffffff" stroke="none" d="M 193.300003 65 C 193.300003 58.399994 189.800003 56 184.399994 56 C 179.199997 56 175.800003 58.800003 173.800003 61.300003 L 173.800003 96.400009 L 156.5 96.400009 L 156.5 42 L 173.800003 42 L 173.800003 48.600006 C 177.100006 44.800003 183.5 40.600006 192.600006 40.600006 C 205 40.600006 210.600006 47.800003 210.600006 57.800003 L 210.600006 96.300003 L 193.300003 96.300003 L 193.300003 65 Z"/>
            <path id="path36" fill="#ffffff" stroke="none" d="M 301.600006 91 C 298.200012 95.100006 291.700012 97.800003 284.700012 97.800003 C 276.399994 97.800003 266 92.199997 266 79.900002 C 266 66.699997 276.399994 62.800003 284.700012 62.800003 C 291.899994 62.800003 298.299988 65.100006 301.600006 69.100006 L 301.600006 62.199997 C 301.600006 57.5 297.5 54.300003 290.600006 54.300003 C 285.200012 54.300003 279.600006 56.300003 275.200012 60 L 269 49.100006 C 276 43.100006 285.299988 40.699997 293.700012 40.699997 C 306.799988 40.699997 319 45.5 319 62.399994 L 319 96.400009 L 301.700012 96.400009 L 301.700012 91 Z M 301.600006 77.600006 C 299.799988 75.100006 295.700012 73.800003 291.899994 73.800003 C 287.299988 73.800003 283.200012 75.800003 283.200012 80.100006 C 283.200012 84.400002 287.299988 86.400002 291.899994 86.400002 C 295.700012 86.400002 299.799988 85 301.600006 82.5 L 301.600006 77.600006 Z"/>
            <path id="path37" fill="#ffffff" stroke="none" d="M 376.700012 117.100006 L 376.700012 42 L 394 42 L 394 48.300003 C 398.299988 43.100006 403.899994 40.600006 410.100006 40.600006 C 423.700012 40.600006 434 50.699997 434 69.100006 C 434 87.600006 423.799988 97.699997 410.100006 97.699997 C 404 97.699997 398.5 95.300003 394 89.900009 L 394 117 L 376.700012 117 Z M 404.399994 56 C 400.700012 56 396.200012 58 394 61 L 394 77.600006 C 396.100006 80.400002 400.600006 82.600006 404.399994 82.600006 C 411.200012 82.600006 416.299988 77.5 416.299988 69.300003 C 416.399994 61 411.200012 56 404.399994 56 Z"/>
            <path id="path38" fill="#00aeef" stroke="none" d="M 512.700012 91.600006 C 518.400024 91.600006 523.299988 96.400009 523.299988 102.199997 C 523.299988 107.800003 518.5 112.699997 512.700012 112.699997 C 506.900024 112.699997 502.200012 107.900009 502.200012 102.199997 C 502.200012 96.400009 506.900024 91.600006 512.700012 91.600006 Z M 502.299988 36.300003 L 524.400024 27.100006 L 520.400024 85.200005 L 505 85.200005 L 502.299988 36.300003 Z"/>
        </g>
    </g>
</svg>
