<?xml version="1.0" encoding="UTF-8" standalone="no"?>
<svg
   xmlns:dc="http://purl.org/dc/elements/1.1/"
   xmlns:cc="http://creativecommons.org/ns#"
   xmlns:rdf="http://www.w3.org/1999/02/22-rdf-syntax-ns#"
   xmlns:svg="http://www.w3.org/2000/svg"
   xmlns="http://www.w3.org/2000/svg"
   xmlns:sodipodi="http://sodipodi.sourceforge.net/DTD/sodipodi-0.dtd"
   xmlns:inkscape="http://www.inkscape.org/namespaces/inkscape"
   version="1.1"
   id="Layer_1"
   x="0px"
   y="0px"
   viewBox="0 0 276.4 339.2"
   style="enable-background:new 0 0 276.4 339.2;"
   xml:space="preserve"
   sodipodi:docname="Nebo-Disappointed (1).svg"
   inkscape:version="1.0.2 (e86c8708, 2021-01-15)"><metadata
   id="metadata3125"><rdf:RDF><cc:Work
       rdf:about=""><dc:format>image/svg+xml</dc:format><dc:type
         rdf:resource="http://purl.org/dc/dcmitype/StillImage" /></cc:Work></rdf:RDF></metadata><defs
   id="defs3123" /><sodipodi:namedview
   pagecolor="#ffffff"
   bordercolor="#666666"
   borderopacity="1"
   objecttolerance="10"
   gridtolerance="10"
   guidetolerance="10"
   inkscape:pageopacity="0"
   inkscape:pageshadow="2"
   inkscape:window-width="1510"
   inkscape:window-height="915"
   id="namedview3121"
   showgrid="false"
   inkscape:zoom="2.17"
   inkscape:cx="132.20788"
   inkscape:cy="147.44083"
   inkscape:window-x="0"
   inkscape:window-y="25"
   inkscape:window-maximized="0"
   inkscape:current-layer="Layer_1" />
<style
   type="text/css"
   id="style3018">
	.st0{fill:#FFEFD4;}
	.st1{fill:#312A65;}
	.st2{fill:#3A23AD;}
	.st3{fill:#8C8CC4;}
	.st4{fill:#FFFFFF;}
	.st5{opacity:0.2;fill:#003B57;}
	.st6{fill:#A7A3E8;}
	.st7{fill:#00CEE1;}
	.st8{opacity:0.5;fill:#FFFFFF;}
	.st9{fill:#003B57;}
	.st10{fill:#979ACC;}
</style>
<g
   id="g3778"
   transform="translate(-2.3041475,61.290323)"><g
     id="g3118"
     transform="translate(2.3041475,13.824885)">
	<g
   id="g3116">
		<g
   id="g3114">
			<g
   id="g3096">
				
				<g
   id="g3024">
					
				</g>
				<g
   id="g3028">
					
				</g>
				
				
				
				<g
   id="g3046">
					<g
   id="g3044">
						<g
   id="g3038">
							
						</g>
						<g
   id="g3042">
							
						</g>
					</g>
				</g>
				
				<g
   id="g3080">
					<path
   class="st1"
   d="M 73.7,75.4 C 72,87 67.4,95.9 63.4,95.3 c -4,-0.6 -5.8,-10.5 -4,-22 1.7,-11.6 6.3,-20.5 10.3,-19.9 4,0.6 5.8,10.4 4,22 z"
   id="path3050" />
					<path
   class="st1"
   d="m 205.2,94.9 c -1.7,11.6 0.1,21.5 4,22 4,0.6 8.6,-8.3 10.3,-19.9 1.7,-11.6 -0.1,-21.5 -4,-22 -4,-0.6 -8.6,8.3 -10.3,19.9 z"
   id="path3052" />
					<path
   class="st6"
   d="m 212.8,96.1 c -4.8,32.1 -41.5,53.1 -82,47.1 -40.5,-6.1 -69.4,-36.9 -64.6,-69 4.8,-32.1 41.5,-53.1 82,-47.1 40.4,6.1 69.4,37 64.6,69 z"
   id="path3054" />
					<path
   class="st7"
   d="M 98.2,110.1 C 87.7,108.5 80.4,98.7 82,88.2 L 85.4,65.5 C 87,55 96.8,47.7 107.3,49.3 l 73.5,11 c 10.5,1.6 17.8,11.4 16.2,21.9 l -3.4,22.7 c -1.6,10.5 -11.4,17.8 -21.9,16.2 z"
   id="path3056" />
					<path
   class="st2"
   d="m 194.3,81.8 c 1.3,-9 -4.9,-17.4 -13.9,-18.8 L 106.9,52 c -9,-1.3 -17.4,4.9 -18.8,13.9 l -3.4,22.7 c -1.3,9 4.9,17.4 13.9,18.8 l 73.5,11 c 9,1.3 17.4,-4.9 18.8,-13.9 z"
   id="path3058" />
					<path
   class="st8"
   d="m 194.1,76.1 -35.8,40.2 9.4,1.4 25.5,-28.7 1.1,-7.3 c 0.3,-1.9 0.2,-3.8 -0.2,-5.6 z M 184,64 l -44.1,49.6 15.2,2.3 38.1,-42.9 c -1.7,-4.1 -5,-7.4 -9.2,-9 z M 84.6,93.3 c 0.4,3 1.6,5.8 3.5,8 l 40.9,-46 -9.4,-1.4 z M 106.8,52 c -2.3,-0.3 -4.6,-0.2 -6.7,0.4 L 88,66 84.6,88.6 c 0,0.2 0,0.4 -0.1,0.6 l 31.8,-35.8 z"
   id="path3060" />
					<g
   id="g3078">
						<path
   class="st4"
   d="m 112.8,74.7 c -2.5,-0.3 -4.7,-1.1 -6.5,-2.1 -0.1,0.4 -0.2,0.8 -0.3,1.2 -0.5,3.8 2.2,7.2 5.9,7.7 3.8,0.5 7.2,-2.2 7.7,-5.9 0.1,-0.4 0.1,-0.8 0,-1.2 -1.9,0.5 -4.3,0.6 -6.8,0.3 z"
   id="path3062" />
						<g
   id="g3074">
							
								<rect
   x="141.60001"
   y="98.800003"
   transform="matrix(0.1397,-0.9902,0.9902,0.1397,23.76,229.2827)"
   class="st4"
   width="4.4000001"
   height="4.4000001"
   id="rect3064" />
							
								<rect
   x="124.1"
   y="96.300003"
   transform="matrix(0.1398,-0.9902,0.9902,0.1398,11.1405,209.8178)"
   class="st4"
   width="4.4000001"
   height="4.4000001"
   id="rect3066" />
							
								<rect
   x="137.89999"
   y="93.800003"
   transform="matrix(0.1398,-0.9902,0.9902,0.1398,25.4664,221.2608)"
   class="st4"
   width="4.4000001"
   height="4.4000001"
   id="rect3068" />
							
								<rect
   x="129.10001"
   y="92.5"
   transform="matrix(0.1398,-0.9902,0.9902,0.1398,19.162,211.5336)"
   class="st4"
   width="4.4000001"
   height="4.4000001"
   id="rect3070" />
							
								<rect
   x="133.5"
   y="93.099998"
   transform="matrix(0.1396,-0.9902,0.9902,0.1396,22.3342,216.416)"
   class="st4"
   width="4.4000001"
   height="4.4000001"
   id="rect3072" />
						</g>
						<path
   class="st4"
   d="m 161.3,81 c -3.5,-0.5 -6.6,-1.9 -8.8,-3.8 -0.3,0.8 -0.6,1.7 -0.7,2.6 -0.7,5.2 3,10 8.3,10.7 5.2,0.7 10,-3 10.7,-8.3 0.1,-0.9 0.1,-1.8 0,-2.7 -2.6,1.3 -5.9,1.9 -9.5,1.5 z"
   id="path3076" />
					</g>
				</g>
				<path
   class="st4"
   d="m 79,60.6 c 0,0 13,-21.2 40.9,-28.9 27.9,-7.7 2.4,5.4 -6.5,8.8 -8.8,3.5 -19.9,6 -34.4,20.1 z"
   id="path3082" />
				
				
				
				<g
   id="g3094">
					
					
				</g>
			</g>
			<g
   id="g3104">
				
				
				
			</g>
			<g
   id="g3112">
				
				
				
			</g>
		</g>
	</g>
</g></g>
</svg>
